<svg aria-roledescription="er" role="graphics-document document" viewBox="-143.2055435180664 0 1274.5130615234375 854" style="max-width: 1274.51px; background-color: white;" xmlns:xlink="http://www.w3.org/1999/xlink" xmlns="http://www.w3.org/2000/svg" width="100%" id="my-svg"><style>#my-svg{font-family:"trebuchet ms",verdana,arial,sans-serif;font-size:16px;fill:#000000;}#my-svg .error-icon{fill:#552222;}#my-svg .error-text{fill:#552222;stroke:#552222;}#my-svg .edge-thickness-normal{stroke-width:2px;}#my-svg .edge-thickness-thick{stroke-width:3.5px;}#my-svg .edge-pattern-solid{stroke-dasharray:0;}#my-svg .edge-pattern-dashed{stroke-dasharray:3;}#my-svg .edge-pattern-dotted{stroke-dasharray:2;}#my-svg .marker{fill:#000000;stroke:#000000;}#my-svg .marker.cross{stroke:#000000;}#my-svg svg{font-family:"trebuchet ms",verdana,arial,sans-serif;font-size:16px;}#my-svg .entityBox{fill:#cde498;stroke:#13540c;}#my-svg .attributeBoxOdd{fill:#ffffff;stroke:#13540c;}#my-svg .attributeBoxEven{fill:#f2f2f2;stroke:#13540c;}#my-svg .relationshipLabelBox{fill:hsl(78.1578947368, 58.4615384615%, 84.5098039216%);opacity:0.7;background-color:hsl(78.1578947368, 58.4615384615%, 84.5098039216%);}#my-svg .relationshipLabelBox rect{opacity:0.5;}#my-svg .relationshipLine{stroke:#000000;}#my-svg .entityTitleText{text-anchor:middle;font-size:18px;fill:#000000;}#my-svg #MD_PARENT_START{fill:#f5f5f5!important;stroke:#000000!important;stroke-width:1;}#my-svg #MD_PARENT_END{fill:#f5f5f5!important;stroke:#000000!important;stroke-width:1;}#my-svg :root{--mermaid-font-family:"trebuchet ms",verdana,arial,sans-serif;}</style><g/><defs><marker orient="auto" markerHeight="240" markerWidth="190" refY="7" refX="0" id="MD_PARENT_START"><path d="M 18,7 L9,13 L1,7 L9,1 Z"/></marker></defs><defs><marker orient="auto" markerHeight="28" markerWidth="20" refY="7" refX="19" id="MD_PARENT_END"><path d="M 18,7 L9,13 L1,7 L9,1 Z"/></marker></defs><defs><marker orient="auto" markerHeight="18" markerWidth="18" refY="9" refX="0" id="ONLY_ONE_START"><path d="M9,0 L9,18 M15,0 L15,18" fill="none" stroke="gray"/></marker></defs><defs><marker orient="auto" markerHeight="18" markerWidth="18" refY="9" refX="18" id="ONLY_ONE_END"><path d="M3,0 L3,18 M9,0 L9,18" fill="none" stroke="gray"/></marker></defs><defs><marker orient="auto" markerHeight="18" markerWidth="30" refY="9" refX="0" id="ZERO_OR_ONE_START"><circle r="6" cy="9" cx="21" fill="white" stroke="gray"/><path d="M9,0 L9,18" fill="none" stroke="gray"/></marker></defs><defs><marker orient="auto" markerHeight="18" markerWidth="30" refY="9" refX="30" id="ZERO_OR_ONE_END"><circle r="6" cy="9" cx="9" fill="white" stroke="gray"/><path d="M21,0 L21,18" fill="none" stroke="gray"/></marker></defs><defs><marker orient="auto" markerHeight="36" markerWidth="45" refY="18" refX="18" id="ONE_OR_MORE_START"><path d="M0,18 Q 18,0 36,18 Q 18,36 0,18 M42,9 L42,27" fill="none" stroke="gray"/></marker></defs><defs><marker orient="auto" markerHeight="36" markerWidth="45" refY="18" refX="27" id="ONE_OR_MORE_END"><path d="M3,9 L3,27 M9,18 Q27,0 45,18 Q27,36 9,18" fill="none" stroke="gray"/></marker></defs><defs><marker orient="auto" markerHeight="36" markerWidth="57" refY="18" refX="18" id="ZERO_OR_MORE_START"><circle r="6" cy="18" cx="48" fill="white" stroke="gray"/><path d="M0,18 Q18,0 36,18 Q18,36 0,18" fill="none" stroke="gray"/></marker></defs><defs><marker orient="auto" markerHeight="36" markerWidth="57" refY="18" refX="39" id="ZERO_OR_MORE_END"><circle r="6" cy="18" cx="9" fill="white" stroke="gray"/><path d="M21,18 Q39,0 57,18 Q39,36 21,18" fill="none" stroke="gray"/></marker></defs><path style="stroke: gray; fill: none;" marker-start="url(#ZERO_OR_MORE_START)" marker-end="url(#ZERO_OR_MORE_END)" d="M378.6689643859863,198L378.6689643859863,206.33333333333334C378.6689643859863,214.66666666666666,378.6689643859863,231.33333333333334,389.63916778564453,250.1317047250005C400.60937118530273,268.9300761166677,422.54977798461914,289.8601522333354,433.51998138427734,300.32519029166923L444.49018478393555,310.7902283500031" class="er relationshipLine"/><path style="stroke: gray; fill: none;" marker-start="url(#ZERO_OR_MORE_START)" marker-end="url(#ZERO_OR_MORE_END)" d="M442.6977413644036,198L448.6929452013341,206.33333333333334C454.6881490382645,214.66666666666666,466.6785567121254,231.33333333333334,475.3884813247396,249.83333333333334C484.0984059373538,268.3333333333333,489.5278474887212,288.6666666666667,492.24256826440495,298.8333333333333L494.95728904008865,309" class="er relationshipLine"/><path style="stroke: gray; fill: none;" marker-start="url(#ZERO_OR_MORE_START)" marker-end="url(#ZERO_OR_MORE_END)" d="M310.31140518188477,129.1117190258276L242.9633356730143,148.926432521523C175.6152661641439,168.7411460172184,40.91912714640299,208.3705730086092,-26.42894236246745,249.51861983763794C-93.77701187133789,290.6666666666667,-93.77701187133789,333.3333333333333,-93.77701187133789,376C-93.77701187133789,418.6666666666667,-93.77701187133789,461.3333333333333,-93.77701187133789,500.3333333333333C-93.77701187133789,539.3333333333334,-93.77701187133789,574.6666666666666,-93.77701187133789,610C-93.77701187133789,645.3333333333334,-93.77701187133789,680.6666666666666,32.42477035522461,711.3147542747979C158.6265525817871,741.9628418829292,411.0301170349121,767.9256837658581,537.2318992614746,780.9071047073227L663.4336814880371,793.8885256487872" class="er relationshipLine"/><path style="stroke: gray; fill: none;" marker-start="url(#ZERO_OR_MORE_START)" marker-end="url(#ZERO_OR_MORE_END)" d="M314.64018740756904,198L308.6449835706386,206.33333333333334C302.64977973370816,214.66666666666666,290.65937205984727,231.33333333333334,284.66416822291677,261C278.6689643859863,290.6666666666667,278.6689643859863,333.3333333333333,278.6689643859863,376C278.6689643859863,418.6666666666667,278.6689643859863,461.3333333333333,341.3058344523112,497.6144951806243C403.94270451863605,533.8956570279153,529.2164446512858,563.7913140558305,591.8533147176107,578.7391425697882L654.4901847839355,593.6869710837458" class="er relationshipLine"/><path style="stroke: gray; fill: none;" marker-start="url(#ZERO_OR_MORE_START)" marker-end="url(#ZERO_OR_MORE_END)" d="M310.31140518188477,137.2601162468228L265.6671670277913,155.716763539019C221.0229288736979,174.1734108312152,131.73445256551108,211.0867054156076,90.34542274475098,237.8766860411371C48.95639292399088,264.6666666666667,55.466809590657554,281.3333333333333,58.72201792399088,289.6666666666667L61.97722625732422,298" class="er relationshipLine"/><path style="stroke: gray; fill: none;" marker-start="url(#ZERO_OR_MORE_START)" marker-end="url(#ZERO_OR_MORE_END)" d="M581.2053031921387,343.80083759094606L593.5187721252441,338.00069799245506C605.8322410583496,332.20055839396406,630.4591789245605,320.600279196982,645.8510150909424,314.800139598491C661.2428512573242,309,667.399585723877,309,673.5563201904297,320.1666666666667C679.7130546569824,331.3333333333333,685.8697891235352,353.6666666666667,685.8697891235352,376C685.8697891235352,398.3333333333333,679.7130546569824,420.6666666666667,673.5563201904297,431.8333333333333C667.399585723877,443,661.2428512573242,443,645.8510150909424,437.19986040150894C630.4591789245605,431.399720803018,605.8322410583496,419.799441606036,593.5187721252441,413.99930200754494L581.2053031921387,408.19916240905394" class="er relationshipLine"/><path style="stroke: gray; fill: none;" marker-start="url(#ZERO_OR_MORE_START)" marker-end="url(#ZERO_OR_MORE_END)" d="M565.1914939880371,309L573.1342023213705,298.8333333333333C581.0769106547037,288.6666666666667,596.9623273213705,268.3333333333333,577.2681655883789,241.76242651413358C557.5740038553873,215.19151969493385,502.3002637227376,182.3830393898677,474.6633936564128,165.97879923733458L447.0265235900879,149.5745590848015" class="er relationshipLine"/><path style="stroke: gray; fill: none;" marker-start="url(#ZERO_OR_ONE_START)" marker-end="url(#ONLY_ONE_END)" d="M581.2053031921387,332.251162109375L603.1457099914551,318.2093017578125C625.0861167907715,304.16744140625,668.9669303894043,276.083720703125,646.6038004557291,243.61402476840797C624.2406705220541,211.144328833691,535.6335970560709,174.28865766738193,491.3300603230794,155.8608220842274L447.0265235900879,137.4329865010729" class="er relationshipLine"/><path style="stroke: gray; fill: none;" marker-start="url(#ZERO_OR_ONE_START)" marker-end="url(#ONLY_ONE_END)" d="M512.8477439880371,443L512.8477439880371,453.1666666666667C512.8477439880371,463.3333333333333,512.8477439880371,483.6666666666667,536.4548174540201,505.74928470187723C560.0618909200033,527.8319027370877,607.2760378519694,551.6638054741753,630.8831113179525,563.5797568427192L654.4901847839355,575.495708211263" class="er relationshipLine"/><path style="stroke: gray; fill: none;" marker-start="url(#ZERO_OR_ONE_START)" marker-end="url(#ZERO_OR_ONE_END)" d="M581.2053031921387,354.7543711149924L605.7409943474664,347.128642595827C630.2766855027941,339.5029140766616,679.3480678134495,324.2514570383308,710.017681757609,316.6257285191654C740.6872957017687,309,752.9551412794325,309,765.2229868570963,320.1666666666667C777.4908324347601,331.3333333333333,789.758678012424,353.6666666666667,789.758678012424,376C789.758678012424,398.3333333333333,777.4908324347601,420.6666666666667,765.2229868570963,431.8333333333333C752.9551412794325,443,740.6872957017687,443,710.017681757609,435.3742714808346C679.3480678134495,427.7485429616692,630.2766855027941,412.4970859233384,605.7409943474664,404.871357404173L581.2053031921387,397.2456288850076" class="er relationshipLine"/><path style="stroke: gray; fill: none;" marker-start="url(#ZERO_OR_ONE_START)" marker-end="url(#ONLY_ONE_END)" d="M122.91472625732422,298L126.16993459065755,289.6666666666667C129.42514292399088,281.3333333333333,135.93555959065756,264.6666666666667,167.16833941141763,239.8705730086092C198.40111923217773,215.07447935055174,254.35626220703125,182.14895870110345,282.333833694458,165.68619837637934L310.31140518188477,149.2234380516552" class="er relationshipLine"/><path style="stroke: gray; fill: none;" marker-start="url(#ZERO_OR_MORE_START)" marker-end="url(#ZERO_OR_MORE_END)" d="M791.2053031921387,570.6583272443722L810.5088399251302,559.5486060369768C829.8123766581217,548.4388848295815,868.4194501241049,526.2194424147907,887.7229868570963,493.77638787406204C907.0265235900879,461.3333333333333,907.0265235900879,418.6666666666667,907.0265235900879,376C907.0265235900879,333.3333333333333,907.0265235900879,290.6666666666667,830.3598569234213,249.16391116642146C753.6931902567545,207.66115566617623,600.3598569234213,167.32231133235246,523.6931902567545,147.15288916544057L447.0265235900879,126.98346699852867" class="er relationshipLine"/><path style="stroke: gray; fill: none;" marker-start="url(#ZERO_OR_MORE_START)" marker-end="url(#ZERO_OR_MORE_END)" d="M654.4901847839355,622.4842853321505L569.1494833628336,638.0702377767922C483.80878194173175,653.6561902214337,313.127379099528,684.8280951107168,314.6179618835449,712.980907752473C316.10854466756183,741.1337203942289,489.7711130777995,766.2674407884579,576.6023972829183,778.8343009855724L663.4336814880371,791.4011611826869" class="er relationshipLine"/><path style="stroke: gray; fill: none;" marker-start="url(#ZERO_OR_MORE_START)" marker-end="url(#ZERO_OR_MORE_END)" d="M791.2053031921387,584.5023140511L827.1755065917969,571.0852617092501C863.1457099914551,557.6682093674,935.0861167907715,530.8341046837,900.0861167907715,499.0346644083343C865.0861167907715,467.2352241329686,723.1457099914551,430.4704482659372,652.1755065917969,412.0880603324215L581.2053031921387,393.70567239890585" class="er relationshipLine"/><path style="stroke: gray; fill: none;" marker-start="url(#ZERO_OR_ONE_START)" marker-end="url(#ONLY_ONE_END)" d="M782.2618064880371,780.036875L814.0261294047037,769.3640624999999C845.7904523213705,758.69125,909.3190981547037,737.3456249999999,910.8096809387207,713.8367466837566C912.3002637227377,690.327868367513,851.7527834574381,664.655736735026,821.4790433247884,651.8196709187825L791.2053031921387,638.9836051025391" class="er relationshipLine"/><path style="stroke: gray; fill: none;" marker-start="url(#ZERO_OR_ONE_START)" marker-end="url(#ONLY_ONE_END)" d="M782.2618064880371,787.0092219690799L836.3892593383789,775.1743516409C890.5167121887207,763.3394813127201,998.7716178894043,739.66974065636,1052.899070739746,710.1682036615133C1107.026523590088,680.6666666666666,1107.026523590088,645.3333333333334,1107.026523590088,610C1107.026523590088,574.6666666666666,1107.026523590088,539.3333333333334,1107.026523590088,500.3333333333333C1107.026523590088,461.3333333333333,1107.026523590088,418.6666666666667,1107.026523590088,376C1107.026523590088,333.3333333333333,1107.026523590088,290.6666666666667,997.0265235900879,248.3408965736904C887.0265235900879,206.0151264807141,667.0265235900879,164.0302529614282,557.0265235900879,143.03781620178523L447.0265235900879,122.04537944214228" class="er relationshipLine"/><g transform="translate(310.31140518188477,20 )" id="entity-User-818c511a-4a32-5484-ba70-875d765a9175"><rect height="178" width="136.71511840820312" y="0" x="0" class="er entityBox"/><text style="dominant-baseline: middle; text-anchor: middle; font-size: 12px;" transform="translate(68.35755920410156,12)" y="0" x="0" id="text-entity-User-818c511a-4a32-5484-ba70-875d765a9175" class="er entityLabel">User</text><rect height="22" width="54.095550537109375" y="24" x="0" class="er attributeBoxOdd"/><text style="dominant-baseline: middle; font-size: 10.2px;" transform="translate(5,35)" y="0" x="0" id="text-entity-User-818c511a-4a32-5484-ba70-875d765a9175-attr-1-type" class="er entityLabel">String</text><rect height="22" width="58.60394287109375" y="24" x="54.095550537109375" class="er attributeBoxOdd"/><text style="dominant-baseline: middle; font-size: 10.2px;" transform="translate(59.095550537109375,35)" y="0" x="0" id="text-entity-User-818c511a-4a32-5484-ba70-875d765a9175-attr-1-name" class="er entityLabel">id</text><rect height="22" width="24.015625" y="24" x="112.69949340820312" class="er attributeBoxOdd"/><text style="dominant-baseline: middle; font-size: 10.2px;" transform="translate(117.69949340820312,35)" y="0" x="0" id="text-entity-User-818c511a-4a32-5484-ba70-875d765a9175-attr-1-comment" class="er entityLabel">🗝️</text><rect height="22" width="54.095550537109375" y="46" x="0" class="er attributeBoxEven"/><text style="dominant-baseline: middle; font-size: 10.2px;" transform="translate(5,57)" y="0" x="0" id="text-entity-User-818c511a-4a32-5484-ba70-875d765a9175-attr-2-type" class="er entityLabel">String</text><rect height="22" width="58.60394287109375" y="46" x="54.095550537109375" class="er attributeBoxEven"/><text style="dominant-baseline: middle; font-size: 10.2px;" transform="translate(59.095550537109375,57)" y="0" x="0" id="text-entity-User-818c511a-4a32-5484-ba70-875d765a9175-attr-2-name" class="er entityLabel">email</text><rect height="22" width="24.015625" y="46" x="112.69949340820312" class="er attributeBoxEven"/><text style="dominant-baseline: middle; font-size: 10.2px;" transform="translate(117.69949340820312,57)" y="0" x="0" id="text-entity-User-818c511a-4a32-5484-ba70-875d765a9175-attr-2-comment" class="er entityLabel"/><rect height="22" width="54.095550537109375" y="68" x="0" class="er attributeBoxOdd"/><text style="dominant-baseline: middle; font-size: 10.2px;" transform="translate(5,79)" y="0" x="0" id="text-entity-User-818c511a-4a32-5484-ba70-875d765a9175-attr-3-type" class="er entityLabel">String</text><rect height="22" width="58.60394287109375" y="68" x="54.095550537109375" class="er attributeBoxOdd"/><text style="dominant-baseline: middle; font-size: 10.2px;" transform="translate(59.095550537109375,79)" y="0" x="0" id="text-entity-User-818c511a-4a32-5484-ba70-875d765a9175-attr-3-name" class="er entityLabel">username</text><rect height="22" width="24.015625" y="68" x="112.69949340820312" class="er attributeBoxOdd"/><text style="dominant-baseline: middle; font-size: 10.2px;" transform="translate(117.69949340820312,79)" y="0" x="0" id="text-entity-User-818c511a-4a32-5484-ba70-875d765a9175-attr-3-comment" class="er entityLabel"/><rect height="22" width="54.095550537109375" y="90" x="0" class="er attributeBoxEven"/><text style="dominant-baseline: middle; font-size: 10.2px;" transform="translate(5,101)" y="0" x="0" id="text-entity-User-818c511a-4a32-5484-ba70-875d765a9175-attr-4-type" class="er entityLabel">String</text><rect height="22" width="58.60394287109375" y="90" x="54.095550537109375" class="er attributeBoxEven"/><text style="dominant-baseline: middle; font-size: 10.2px;" transform="translate(59.095550537109375,101)" y="0" x="0" id="text-entity-User-818c511a-4a32-5484-ba70-875d765a9175-attr-4-name" class="er entityLabel">firstname</text><rect height="22" width="24.015625" y="90" x="112.69949340820312" class="er attributeBoxEven"/><text style="dominant-baseline: middle; font-size: 10.2px;" transform="translate(117.69949340820312,101)" y="0" x="0" id="text-entity-User-818c511a-4a32-5484-ba70-875d765a9175-attr-4-comment" class="er entityLabel">❓</text><rect height="22" width="54.095550537109375" y="112" x="0" class="er attributeBoxOdd"/><text style="dominant-baseline: middle; font-size: 10.2px;" transform="translate(5,123)" y="0" x="0" id="text-entity-User-818c511a-4a32-5484-ba70-875d765a9175-attr-5-type" class="er entityLabel">String</text><rect height="22" width="58.60394287109375" y="112" x="54.095550537109375" class="er attributeBoxOdd"/><text style="dominant-baseline: middle; font-size: 10.2px;" transform="translate(59.095550537109375,123)" y="0" x="0" id="text-entity-User-818c511a-4a32-5484-ba70-875d765a9175-attr-5-name" class="er entityLabel">lastname</text><rect height="22" width="24.015625" y="112" x="112.69949340820312" class="er attributeBoxOdd"/><text style="dominant-baseline: middle; font-size: 10.2px;" transform="translate(117.69949340820312,123)" y="0" x="0" id="text-entity-User-818c511a-4a32-5484-ba70-875d765a9175-attr-5-comment" class="er entityLabel">❓</text><rect height="22" width="54.095550537109375" y="134" x="0" class="er attributeBoxEven"/><text style="dominant-baseline: middle; font-size: 10.2px;" transform="translate(5,145)" y="0" x="0" id="text-entity-User-818c511a-4a32-5484-ba70-875d765a9175-attr-6-type" class="er entityLabel">DateTime</text><rect height="22" width="58.60394287109375" y="134" x="54.095550537109375" class="er attributeBoxEven"/><text style="dominant-baseline: middle; font-size: 10.2px;" transform="translate(59.095550537109375,145)" y="0" x="0" id="text-entity-User-818c511a-4a32-5484-ba70-875d765a9175-attr-6-name" class="er entityLabel">createdAt</text><rect height="22" width="24.015625" y="134" x="112.69949340820312" class="er attributeBoxEven"/><text style="dominant-baseline: middle; font-size: 10.2px;" transform="translate(117.69949340820312,145)" y="0" x="0" id="text-entity-User-818c511a-4a32-5484-ba70-875d765a9175-attr-6-comment" class="er entityLabel"/><rect height="22" width="54.095550537109375" y="156" x="0" class="er attributeBoxOdd"/><text style="dominant-baseline: middle; font-size: 10.2px;" transform="translate(5,167)" y="0" x="0" id="text-entity-User-818c511a-4a32-5484-ba70-875d765a9175-attr-7-type" class="er entityLabel">DateTime</text><rect height="22" width="58.60394287109375" y="156" x="54.095550537109375" class="er attributeBoxOdd"/><text style="dominant-baseline: middle; font-size: 10.2px;" transform="translate(59.095550537109375,167)" y="0" x="0" id="text-entity-User-818c511a-4a32-5484-ba70-875d765a9175-attr-7-name" class="er entityLabel">updatedAt</text><rect height="22" width="24.015625" y="156" x="112.69949340820312" class="er attributeBoxOdd"/><text style="dominant-baseline: middle; font-size: 10.2px;" transform="translate(117.69949340820312,167)" y="0" x="0" id="text-entity-User-818c511a-4a32-5484-ba70-875d765a9175-attr-7-comment" class="er entityLabel"/></g><g transform="translate(444.49018478393555,309 )" id="entity-Comment-09a819da-2a79-5b7d-8a84-94cec22d9152"><rect height="134" width="136.71511840820312" y="0" x="0" class="er entityBox"/><text style="dominant-baseline: middle; text-anchor: middle; font-size: 12px;" transform="translate(68.35755920410156,12)" y="0" x="0" id="text-entity-Comment-09a819da-2a79-5b7d-8a84-94cec22d9152" class="er entityLabel">Comment</text><rect height="22" width="54.095550537109375" y="24" x="0" class="er attributeBoxOdd"/><text style="dominant-baseline: middle; font-size: 10.2px;" transform="translate(5,35)" y="0" x="0" id="text-entity-Comment-09a819da-2a79-5b7d-8a84-94cec22d9152-attr-1-type" class="er entityLabel">String</text><rect height="22" width="58.60394287109375" y="24" x="54.095550537109375" class="er attributeBoxOdd"/><text style="dominant-baseline: middle; font-size: 10.2px;" transform="translate(59.095550537109375,35)" y="0" x="0" id="text-entity-Comment-09a819da-2a79-5b7d-8a84-94cec22d9152-attr-1-name" class="er entityLabel">id</text><rect height="22" width="24.015625" y="24" x="112.69949340820312" class="er attributeBoxOdd"/><text style="dominant-baseline: middle; font-size: 10.2px;" transform="translate(117.69949340820312,35)" y="0" x="0" id="text-entity-Comment-09a819da-2a79-5b7d-8a84-94cec22d9152-attr-1-comment" class="er entityLabel">🗝️</text><rect height="22" width="54.095550537109375" y="46" x="0" class="er attributeBoxEven"/><text style="dominant-baseline: middle; font-size: 10.2px;" transform="translate(5,57)" y="0" x="0" id="text-entity-Comment-09a819da-2a79-5b7d-8a84-94cec22d9152-attr-2-type" class="er entityLabel">String</text><rect height="22" width="58.60394287109375" y="46" x="54.095550537109375" class="er attributeBoxEven"/><text style="dominant-baseline: middle; font-size: 10.2px;" transform="translate(59.095550537109375,57)" y="0" x="0" id="text-entity-Comment-09a819da-2a79-5b7d-8a84-94cec22d9152-attr-2-name" class="er entityLabel">content</text><rect height="22" width="24.015625" y="46" x="112.69949340820312" class="er attributeBoxEven"/><text style="dominant-baseline: middle; font-size: 10.2px;" transform="translate(117.69949340820312,57)" y="0" x="0" id="text-entity-Comment-09a819da-2a79-5b7d-8a84-94cec22d9152-attr-2-comment" class="er entityLabel"/><rect height="22" width="54.095550537109375" y="68" x="0" class="er attributeBoxOdd"/><text style="dominant-baseline: middle; font-size: 10.2px;" transform="translate(5,79)" y="0" x="0" id="text-entity-Comment-09a819da-2a79-5b7d-8a84-94cec22d9152-attr-3-type" class="er entityLabel">Int</text><rect height="22" width="58.60394287109375" y="68" x="54.095550537109375" class="er attributeBoxOdd"/><text style="dominant-baseline: middle; font-size: 10.2px;" transform="translate(59.095550537109375,79)" y="0" x="0" id="text-entity-Comment-09a819da-2a79-5b7d-8a84-94cec22d9152-attr-3-name" class="er entityLabel">likes</text><rect height="22" width="24.015625" y="68" x="112.69949340820312" class="er attributeBoxOdd"/><text style="dominant-baseline: middle; font-size: 10.2px;" transform="translate(117.69949340820312,79)" y="0" x="0" id="text-entity-Comment-09a819da-2a79-5b7d-8a84-94cec22d9152-attr-3-comment" class="er entityLabel"/><rect height="22" width="54.095550537109375" y="90" x="0" class="er attributeBoxEven"/><text style="dominant-baseline: middle; font-size: 10.2px;" transform="translate(5,101)" y="0" x="0" id="text-entity-Comment-09a819da-2a79-5b7d-8a84-94cec22d9152-attr-4-type" class="er entityLabel">DateTime</text><rect height="22" width="58.60394287109375" y="90" x="54.095550537109375" class="er attributeBoxEven"/><text style="dominant-baseline: middle; font-size: 10.2px;" transform="translate(59.095550537109375,101)" y="0" x="0" id="text-entity-Comment-09a819da-2a79-5b7d-8a84-94cec22d9152-attr-4-name" class="er entityLabel">createdAt</text><rect height="22" width="24.015625" y="90" x="112.69949340820312" class="er attributeBoxEven"/><text style="dominant-baseline: middle; font-size: 10.2px;" transform="translate(117.69949340820312,101)" y="0" x="0" id="text-entity-Comment-09a819da-2a79-5b7d-8a84-94cec22d9152-attr-4-comment" class="er entityLabel"/><rect height="22" width="54.095550537109375" y="112" x="0" class="er attributeBoxOdd"/><text style="dominant-baseline: middle; font-size: 10.2px;" transform="translate(5,123)" y="0" x="0" id="text-entity-Comment-09a819da-2a79-5b7d-8a84-94cec22d9152-attr-5-type" class="er entityLabel">DateTime</text><rect height="22" width="58.60394287109375" y="112" x="54.095550537109375" class="er attributeBoxOdd"/><text style="dominant-baseline: middle; font-size: 10.2px;" transform="translate(59.095550537109375,123)" y="0" x="0" id="text-entity-Comment-09a819da-2a79-5b7d-8a84-94cec22d9152-attr-5-name" class="er entityLabel">updatedAt</text><rect height="22" width="24.015625" y="112" x="112.69949340820312" class="er attributeBoxOdd"/><text style="dominant-baseline: middle; font-size: 10.2px;" transform="translate(117.69949340820312,123)" y="0" x="0" id="text-entity-Comment-09a819da-2a79-5b7d-8a84-94cec22d9152-attr-5-comment" class="er entityLabel"/></g><g transform="translate(20,298 )" id="entity-UserImage-5b082f7e-732a-581d-b322-f1377dba0d46"><rect height="156" width="144.89195251464844" y="0" x="0" class="er entityBox"/><text style="dominant-baseline: middle; text-anchor: middle; font-size: 12px;" transform="translate(72.44597625732422,12)" y="0" x="0" id="text-entity-UserImage-5b082f7e-732a-581d-b322-f1377dba0d46" class="er entityLabel">UserImage</text><rect height="22" width="54.095550537109375" y="24" x="0" class="er attributeBoxOdd"/><text style="dominant-baseline: middle; font-size: 10.2px;" transform="translate(5,35)" y="0" x="0" id="text-entity-UserImage-5b082f7e-732a-581d-b322-f1377dba0d46-attr-1-type" class="er entityLabel">String</text><rect height="22" width="66.78077697753906" y="24" x="54.095550537109375" class="er attributeBoxOdd"/><text style="dominant-baseline: middle; font-size: 10.2px;" transform="translate(59.095550537109375,35)" y="0" x="0" id="text-entity-UserImage-5b082f7e-732a-581d-b322-f1377dba0d46-attr-1-name" class="er entityLabel">id</text><rect height="22" width="24.015625" y="24" x="120.87632751464844" class="er attributeBoxOdd"/><text style="dominant-baseline: middle; font-size: 10.2px;" transform="translate(125.87632751464844,35)" y="0" x="0" id="text-entity-UserImage-5b082f7e-732a-581d-b322-f1377dba0d46-attr-1-comment" class="er entityLabel">🗝️</text><rect height="22" width="54.095550537109375" y="46" x="0" class="er attributeBoxEven"/><text style="dominant-baseline: middle; font-size: 10.2px;" transform="translate(5,57)" y="0" x="0" id="text-entity-UserImage-5b082f7e-732a-581d-b322-f1377dba0d46-attr-2-type" class="er entityLabel">String</text><rect height="22" width="66.78077697753906" y="46" x="54.095550537109375" class="er attributeBoxEven"/><text style="dominant-baseline: middle; font-size: 10.2px;" transform="translate(59.095550537109375,57)" y="0" x="0" id="text-entity-UserImage-5b082f7e-732a-581d-b322-f1377dba0d46-attr-2-name" class="er entityLabel">altText</text><rect height="22" width="24.015625" y="46" x="120.87632751464844" class="er attributeBoxEven"/><text style="dominant-baseline: middle; font-size: 10.2px;" transform="translate(125.87632751464844,57)" y="0" x="0" id="text-entity-UserImage-5b082f7e-732a-581d-b322-f1377dba0d46-attr-2-comment" class="er entityLabel">❓</text><rect height="22" width="54.095550537109375" y="68" x="0" class="er attributeBoxOdd"/><text style="dominant-baseline: middle; font-size: 10.2px;" transform="translate(5,79)" y="0" x="0" id="text-entity-UserImage-5b082f7e-732a-581d-b322-f1377dba0d46-attr-3-type" class="er entityLabel">String</text><rect height="22" width="66.78077697753906" y="68" x="54.095550537109375" class="er attributeBoxOdd"/><text style="dominant-baseline: middle; font-size: 10.2px;" transform="translate(59.095550537109375,79)" y="0" x="0" id="text-entity-UserImage-5b082f7e-732a-581d-b322-f1377dba0d46-attr-3-name" class="er entityLabel">contentType</text><rect height="22" width="24.015625" y="68" x="120.87632751464844" class="er attributeBoxOdd"/><text style="dominant-baseline: middle; font-size: 10.2px;" transform="translate(125.87632751464844,79)" y="0" x="0" id="text-entity-UserImage-5b082f7e-732a-581d-b322-f1377dba0d46-attr-3-comment" class="er entityLabel"/><rect height="22" width="54.095550537109375" y="90" x="0" class="er attributeBoxEven"/><text style="dominant-baseline: middle; font-size: 10.2px;" transform="translate(5,101)" y="0" x="0" id="text-entity-UserImage-5b082f7e-732a-581d-b322-f1377dba0d46-attr-4-type" class="er entityLabel">String</text><rect height="22" width="66.78077697753906" y="90" x="54.095550537109375" class="er attributeBoxEven"/><text style="dominant-baseline: middle; font-size: 10.2px;" transform="translate(59.095550537109375,101)" y="0" x="0" id="text-entity-UserImage-5b082f7e-732a-581d-b322-f1377dba0d46-attr-4-name" class="er entityLabel">blob</text><rect height="22" width="24.015625" y="90" x="120.87632751464844" class="er attributeBoxEven"/><text style="dominant-baseline: middle; font-size: 10.2px;" transform="translate(125.87632751464844,101)" y="0" x="0" id="text-entity-UserImage-5b082f7e-732a-581d-b322-f1377dba0d46-attr-4-comment" class="er entityLabel"/><rect height="22" width="54.095550537109375" y="112" x="0" class="er attributeBoxOdd"/><text style="dominant-baseline: middle; font-size: 10.2px;" transform="translate(5,123)" y="0" x="0" id="text-entity-UserImage-5b082f7e-732a-581d-b322-f1377dba0d46-attr-5-type" class="er entityLabel">DateTime</text><rect height="22" width="66.78077697753906" y="112" x="54.095550537109375" class="er attributeBoxOdd"/><text style="dominant-baseline: middle; font-size: 10.2px;" transform="translate(59.095550537109375,123)" y="0" x="0" id="text-entity-UserImage-5b082f7e-732a-581d-b322-f1377dba0d46-attr-5-name" class="er entityLabel">createdAt</text><rect height="22" width="24.015625" y="112" x="120.87632751464844" class="er attributeBoxOdd"/><text style="dominant-baseline: middle; font-size: 10.2px;" transform="translate(125.87632751464844,123)" y="0" x="0" id="text-entity-UserImage-5b082f7e-732a-581d-b322-f1377dba0d46-attr-5-comment" class="er entityLabel"/><rect height="22" width="54.095550537109375" y="134" x="0" class="er attributeBoxEven"/><text style="dominant-baseline: middle; font-size: 10.2px;" transform="translate(5,145)" y="0" x="0" id="text-entity-UserImage-5b082f7e-732a-581d-b322-f1377dba0d46-attr-6-type" class="er entityLabel">DateTime</text><rect height="22" width="66.78077697753906" y="134" x="54.095550537109375" class="er attributeBoxEven"/><text style="dominant-baseline: middle; font-size: 10.2px;" transform="translate(59.095550537109375,145)" y="0" x="0" id="text-entity-UserImage-5b082f7e-732a-581d-b322-f1377dba0d46-attr-6-name" class="er entityLabel">updatedAt</text><rect height="22" width="24.015625" y="134" x="120.87632751464844" class="er attributeBoxEven"/><text style="dominant-baseline: middle; font-size: 10.2px;" transform="translate(125.87632751464844,145)" y="0" x="0" id="text-entity-UserImage-5b082f7e-732a-581d-b322-f1377dba0d46-attr-6-comment" class="er entityLabel"/></g><g transform="translate(654.4901847839355,554 )" id="entity-GamePost-1895ae55-04a4-52ba-ab8e-dcaff0cc4ef7"><rect height="112" width="136.71511840820312" y="0" x="0" class="er entityBox"/><text style="dominant-baseline: middle; text-anchor: middle; font-size: 12px;" transform="translate(68.35755920410156,12)" y="0" x="0" id="text-entity-GamePost-1895ae55-04a4-52ba-ab8e-dcaff0cc4ef7" class="er entityLabel">GamePost</text><rect height="22" width="54.095550537109375" y="24" x="0" class="er attributeBoxOdd"/><text style="dominant-baseline: middle; font-size: 10.2px;" transform="translate(5,35)" y="0" x="0" id="text-entity-GamePost-1895ae55-04a4-52ba-ab8e-dcaff0cc4ef7-attr-1-type" class="er entityLabel">String</text><rect height="22" width="58.60394287109375" y="24" x="54.095550537109375" class="er attributeBoxOdd"/><text style="dominant-baseline: middle; font-size: 10.2px;" transform="translate(59.095550537109375,35)" y="0" x="0" id="text-entity-GamePost-1895ae55-04a4-52ba-ab8e-dcaff0cc4ef7-attr-1-name" class="er entityLabel">id</text><rect height="22" width="24.015625" y="24" x="112.69949340820312" class="er attributeBoxOdd"/><text style="dominant-baseline: middle; font-size: 10.2px;" transform="translate(117.69949340820312,35)" y="0" x="0" id="text-entity-GamePost-1895ae55-04a4-52ba-ab8e-dcaff0cc4ef7-attr-1-comment" class="er entityLabel">🗝️</text><rect height="22" width="54.095550537109375" y="46" x="0" class="er attributeBoxEven"/><text style="dominant-baseline: middle; font-size: 10.2px;" transform="translate(5,57)" y="0" x="0" id="text-entity-GamePost-1895ae55-04a4-52ba-ab8e-dcaff0cc4ef7-attr-2-type" class="er entityLabel">String</text><rect height="22" width="58.60394287109375" y="46" x="54.095550537109375" class="er attributeBoxEven"/><text style="dominant-baseline: middle; font-size: 10.2px;" transform="translate(59.095550537109375,57)" y="0" x="0" id="text-entity-GamePost-1895ae55-04a4-52ba-ab8e-dcaff0cc4ef7-attr-2-name" class="er entityLabel">gameId</text><rect height="22" width="24.015625" y="46" x="112.69949340820312" class="er attributeBoxEven"/><text style="dominant-baseline: middle; font-size: 10.2px;" transform="translate(117.69949340820312,57)" y="0" x="0" id="text-entity-GamePost-1895ae55-04a4-52ba-ab8e-dcaff0cc4ef7-attr-2-comment" class="er entityLabel"/><rect height="22" width="54.095550537109375" y="68" x="0" class="er attributeBoxOdd"/><text style="dominant-baseline: middle; font-size: 10.2px;" transform="translate(5,79)" y="0" x="0" id="text-entity-GamePost-1895ae55-04a4-52ba-ab8e-dcaff0cc4ef7-attr-3-type" class="er entityLabel">DateTime</text><rect height="22" width="58.60394287109375" y="68" x="54.095550537109375" class="er attributeBoxOdd"/><text style="dominant-baseline: middle; font-size: 10.2px;" transform="translate(59.095550537109375,79)" y="0" x="0" id="text-entity-GamePost-1895ae55-04a4-52ba-ab8e-dcaff0cc4ef7-attr-3-name" class="er entityLabel">createdAt</text><rect height="22" width="24.015625" y="68" x="112.69949340820312" class="er attributeBoxOdd"/><text style="dominant-baseline: middle; font-size: 10.2px;" transform="translate(117.69949340820312,79)" y="0" x="0" id="text-entity-GamePost-1895ae55-04a4-52ba-ab8e-dcaff0cc4ef7-attr-3-comment" class="er entityLabel"/><rect height="22" width="54.095550537109375" y="90" x="0" class="er attributeBoxEven"/><text style="dominant-baseline: middle; font-size: 10.2px;" transform="translate(5,101)" y="0" x="0" id="text-entity-GamePost-1895ae55-04a4-52ba-ab8e-dcaff0cc4ef7-attr-4-type" class="er entityLabel">DateTime</text><rect height="22" width="58.60394287109375" y="90" x="54.095550537109375" class="er attributeBoxEven"/><text style="dominant-baseline: middle; font-size: 10.2px;" transform="translate(59.095550537109375,101)" y="0" x="0" id="text-entity-GamePost-1895ae55-04a4-52ba-ab8e-dcaff0cc4ef7-attr-4-name" class="er entityLabel">updatedAt</text><rect height="22" width="24.015625" y="90" x="112.69949340820312" class="er attributeBoxEven"/><text style="dominant-baseline: middle; font-size: 10.2px;" transform="translate(117.69949340820312,101)" y="0" x="0" id="text-entity-GamePost-1895ae55-04a4-52ba-ab8e-dcaff0cc4ef7-attr-4-comment" class="er entityLabel"/></g><g transform="translate(663.4336814880371,766 )" id="entity-UserGameRating-b9b47c26-02f2-575b-829a-6f37d1a0dfa2"><rect height="68" width="118.828125" y="0" x="0" class="er entityBox"/><text style="dominant-baseline: middle; text-anchor: middle; font-size: 12px;" transform="translate(59.4140625,12)" y="0" x="0" id="text-entity-UserGameRating-b9b47c26-02f2-575b-829a-6f37d1a0dfa2" class="er entityLabel">UserGameRating</text><rect height="22" width="44.73523457845052" y="24" x="0" class="er attributeBoxOdd"/><text style="dominant-baseline: middle; font-size: 10.2px;" transform="translate(5,35)" y="0" x="0" id="text-entity-UserGameRating-b9b47c26-02f2-575b-829a-6f37d1a0dfa2-attr-1-type" class="er entityLabel">String</text><rect height="22" width="42.73808797200521" y="24" x="44.73523457845052" class="er attributeBoxOdd"/><text style="dominant-baseline: middle; font-size: 10.2px;" transform="translate(49.73523457845052,35)" y="0" x="0" id="text-entity-UserGameRating-b9b47c26-02f2-575b-829a-6f37d1a0dfa2-attr-1-name" class="er entityLabel">id</text><rect height="22" width="31.35480244954427" y="24" x="87.47332255045573" class="er attributeBoxOdd"/><text style="dominant-baseline: middle; font-size: 10.2px;" transform="translate(92.47332255045573,35)" y="0" x="0" id="text-entity-UserGameRating-b9b47c26-02f2-575b-829a-6f37d1a0dfa2-attr-1-comment" class="er entityLabel">🗝️</text><rect height="22" width="44.73523457845052" y="46" x="0" class="er attributeBoxEven"/><text style="dominant-baseline: middle; font-size: 10.2px;" transform="translate(5,57)" y="0" x="0" id="text-entity-UserGameRating-b9b47c26-02f2-575b-829a-6f37d1a0dfa2-attr-2-type" class="er entityLabel">String</text><rect height="22" width="42.73808797200521" y="46" x="44.73523457845052" class="er attributeBoxEven"/><text style="dominant-baseline: middle; font-size: 10.2px;" transform="translate(49.73523457845052,57)" y="0" x="0" id="text-entity-UserGameRating-b9b47c26-02f2-575b-829a-6f37d1a0dfa2-attr-2-name" class="er entityLabel">name</text><rect height="22" width="31.35480244954427" y="46" x="87.47332255045573" class="er attributeBoxEven"/><text style="dominant-baseline: middle; font-size: 10.2px;" transform="translate(92.47332255045573,57)" y="0" x="0" id="text-entity-UserGameRating-b9b47c26-02f2-575b-829a-6f37d1a0dfa2-attr-2-comment" class="er entityLabel"/></g><rect height="14" width="55.162109375" y="254.70114135742188" x="369.8837890625" class="er relationshipLabelBox"/><text style="text-anchor: middle; dominant-baseline: middle; font-size: 12px;" y="261.7011413574219" x="397.46484375" id="rel1" class="er relationshipLabel">comments</text><rect height="14.000015258789062" width="82.642578125" y="243.3013687133789" x="434.28594970703125" class="er relationshipLabelBox"/><text style="text-anchor: middle; dominant-baseline: middle; font-size: 12px;" y="250.30137634277344" x="475.60723876953125" id="rel2" class="er relationshipLabel">likedComments</text><rect height="14" width="67.8828125" y="637.7534790039062" x="-123.2055435180664" class="er relationshipLabelBox"/><text style="text-anchor: middle; dominant-baseline: middle; font-size: 12px;" y="644.7534790039062" x="-89.2641372680664" id="rel3" class="er relationshipLabel">gameRatings</text><rect height="14" width="84.69921875" y="489.8277282714844" x="297.60986328125" class="er relationshipLabelBox"/><text style="text-anchor: middle; dominant-baseline: middle; font-size: 12px;" y="496.8277282714844" x="339.95947265625" id="rel4" class="er relationshipLabel">gameFavourites</text><rect height="14" width="32.7109375" y="192.38629150390625" x="147.870361328125" class="er relationshipLabelBox"/><text style="text-anchor: middle; dominant-baseline: middle; font-size: 12px;" y="199.38629150390625" x="164.225830078125" id="rel5" class="er relationshipLabel">image</text><rect height="14" width="82.54296875" y="369.0000305175781" x="644.5983276367188" class="er relationshipLabelBox"/><text style="text-anchor: middle; dominant-baseline: middle; font-size: 12px;" y="376.0000305175781" x="685.8698120117188" id="rel6" class="er relationshipLabel">childComments</text><rect height="14" width="40.03515625" y="205.8029327392578" x="526.547607421875" class="er relationshipLabelBox"/><text style="text-anchor: middle; dominant-baseline: middle; font-size: 12px;" y="212.8029327392578" x="546.565185546875" id="rel7" class="er relationshipLabel">likedBy</text><rect height="14" width="23.958984375" y="203.73439025878906" x="594.6141357421875" class="er relationshipLabelBox"/><text style="text-anchor: middle; dominant-baseline: middle; font-size: 12px;" y="210.73439025878906" x="606.5936279296875" id="rel8" class="er relationshipLabel">user</text><rect height="14" width="51.259765625" y="519.1456298828125" x="537.8131713867188" class="er relationshipLabelBox"/><text style="text-anchor: middle; dominant-baseline: middle; font-size: 12px;" y="526.1456298828125" x="563.4430541992188" id="rel9" class="er relationshipLabel">gamePost</text><rect height="14" width="87.154296875" y="369" x="746.1815185546875" class="er relationshipLabelBox"/><text style="text-anchor: middle; dominant-baseline: middle; font-size: 12px;" y="376" x="789.7586669921875" id="rel10" class="er relationshipLabel">parentComment</text><rect height="14" width="23.958984375" y="205.3797607421875" x="194.07749938964844" class="er relationshipLabelBox"/><text style="text-anchor: middle; dominant-baseline: middle; font-size: 12px;" y="212.3797607421875" x="206.05699157714844" id="rel11" class="er relationshipLabel">user</text><rect height="14" width="69.478515625" y="242.48777770996094" x="796.2164306640625" class="er relationshipLabelBox"/><text style="text-anchor: middle; dominant-baseline: middle; font-size: 12px;" y="249.48777770996094" x="830.9556884765625" id="rel12" class="er relationshipLabel">favouritedBy</text><rect height="14" width="87.609375" y="708.6098022460938" x="271.448974609375" class="er relationshipLabelBox"/><text style="text-anchor: middle; dominant-baseline: middle; font-size: 12px;" y="715.6098022460938" x="315.253662109375" id="rel13" class="er relationshipLabel">userGameRating</text><rect height="14" width="55.162109375" y="454.0834045410156" x="793.6929321289062" class="er relationshipLabelBox"/><text style="text-anchor: middle; dominant-baseline: middle; font-size: 12px;" y="461.0834045410156" x="821.2739868164062" id="rel14" class="er relationshipLabel">comments</text><rect height="14" width="51.259765625" y="708.4074096679688" x="884.9882202148438" class="er relationshipLabelBox"/><text style="text-anchor: middle; dominant-baseline: middle; font-size: 12px;" y="715.4074096679688" x="910.6181030273438" id="rel15" class="er relationshipLabel">gamePost</text><rect height="14" width="23.958984375" y="314.7967224121094" x="1086.6815185546875" class="er relationshipLabelBox"/><text style="text-anchor: middle; dominant-baseline: middle; font-size: 12px;" y="321.7967224121094" x="1098.6610107421875" id="rel16" class="er relationshipLabel">user</text></svg>