<svg aria-roledescription="er" role="graphics-document document" viewBox="0 0 596.715087890625 452" style="max-width: 596.715px; background-color: white;" xmlns:xlink="http://www.w3.org/1999/xlink" xmlns="http://www.w3.org/2000/svg" width="100%" id="my-svg"><style>#my-svg{font-family:"trebuchet ms",verdana,arial,sans-serif;font-size:16px;fill:#000000;}#my-svg .error-icon{fill:#552222;}#my-svg .error-text{fill:#552222;stroke:#552222;}#my-svg .edge-thickness-normal{stroke-width:2px;}#my-svg .edge-thickness-thick{stroke-width:3.5px;}#my-svg .edge-pattern-solid{stroke-dasharray:0;}#my-svg .edge-pattern-dashed{stroke-dasharray:3;}#my-svg .edge-pattern-dotted{stroke-dasharray:2;}#my-svg .marker{fill:#000000;stroke:#000000;}#my-svg .marker.cross{stroke:#000000;}#my-svg svg{font-family:"trebuchet ms",verdana,arial,sans-serif;font-size:16px;}#my-svg .entityBox{fill:#cde498;stroke:#13540c;}#my-svg .attributeBoxOdd{fill:#ffffff;stroke:#13540c;}#my-svg .attributeBoxEven{fill:#f2f2f2;stroke:#13540c;}#my-svg .relationshipLabelBox{fill:hsl(78.1578947368, 58.4615384615%, 84.5098039216%);opacity:0.7;background-color:hsl(78.1578947368, 58.4615384615%, 84.5098039216%);}#my-svg .relationshipLabelBox rect{opacity:0.5;}#my-svg .relationshipLine{stroke:#000000;}#my-svg .entityTitleText{text-anchor:middle;font-size:18px;fill:#000000;}#my-svg #MD_PARENT_START{fill:#f5f5f5!important;stroke:#000000!important;stroke-width:1;}#my-svg #MD_PARENT_END{fill:#f5f5f5!important;stroke:#000000!important;stroke-width:1;}#my-svg :root{--mermaid-font-family:"trebuchet ms",verdana,arial,sans-serif;}</style><g/><defs><marker orient="auto" markerHeight="240" markerWidth="190" refY="7" refX="0" id="MD_PARENT_START"><path d="M 18,7 L9,13 L1,7 L9,1 Z"/></marker></defs><defs><marker orient="auto" markerHeight="28" markerWidth="20" refY="7" refX="19" id="MD_PARENT_END"><path d="M 18,7 L9,13 L1,7 L9,1 Z"/></marker></defs><defs><marker orient="auto" markerHeight="18" markerWidth="18" refY="9" refX="0" id="ONLY_ONE_START"><path d="M9,0 L9,18 M15,0 L15,18" fill="none" stroke="gray"/></marker></defs><defs><marker orient="auto" markerHeight="18" markerWidth="18" refY="9" refX="18" id="ONLY_ONE_END"><path d="M3,0 L3,18 M9,0 L9,18" fill="none" stroke="gray"/></marker></defs><defs><marker orient="auto" markerHeight="18" markerWidth="30" refY="9" refX="0" id="ZERO_OR_ONE_START"><circle r="6" cy="9" cx="21" fill="white" stroke="gray"/><path d="M9,0 L9,18" fill="none" stroke="gray"/></marker></defs><defs><marker orient="auto" markerHeight="18" markerWidth="30" refY="9" refX="30" id="ZERO_OR_ONE_END"><circle r="6" cy="9" cx="9" fill="white" stroke="gray"/><path d="M21,0 L21,18" fill="none" stroke="gray"/></marker></defs><defs><marker orient="auto" markerHeight="36" markerWidth="45" refY="18" refX="18" id="ONE_OR_MORE_START"><path d="M0,18 Q 18,0 36,18 Q 18,36 0,18 M42,9 L42,27" fill="none" stroke="gray"/></marker></defs><defs><marker orient="auto" markerHeight="36" markerWidth="45" refY="18" refX="27" id="ONE_OR_MORE_END"><path d="M3,9 L3,27 M9,18 Q27,0 45,18 Q27,36 9,18" fill="none" stroke="gray"/></marker></defs><defs><marker orient="auto" markerHeight="36" markerWidth="57" refY="18" refX="18" id="ZERO_OR_MORE_START"><circle r="6" cy="18" cx="48" fill="white" stroke="gray"/><path d="M0,18 Q18,0 36,18 Q18,36 0,18" fill="none" stroke="gray"/></marker></defs><defs><marker orient="auto" markerHeight="36" markerWidth="57" refY="18" refX="39" id="ZERO_OR_MORE_END"><circle r="6" cy="18" cx="9" fill="white" stroke="gray"/><path d="M21,18 Q39,0 57,18 Q39,36 21,18" fill="none" stroke="gray"/></marker></defs><path style="stroke: gray; fill: none;" marker-start="url(#ZERO_OR_MORE_START)" marker-end="url(#ZERO_OR_MORE_END)" d="M239.17877960205078,144.29884764102604L205.70857620239258,161.58237303418835C172.23837280273438,178.8658984273507,105.29796600341797,213.43294921367533,75.38901616501333,239.049807940171C45.480066326608686,264.6666666666667,52.6025734491158,281.3333333333333,56.16382701036937,289.6666666666667L59.725080571622925,298" class="er relationshipLine"/><path style="stroke: gray; fill: none;" marker-start="url(#ZERO_OR_MORE_START)" marker-end="url(#ZERO_OR_MORE_END)" d="M339.55072729536096,198L342.5483292138262,206.33333333333334C345.5459311322914,214.66666666666666,351.5411349692219,231.33333333333334,377.19230566630927,255.33333333333334C402.84347636339675,279.3333333333333,448.1506139206411,310.6666666666667,470.80418269926327,326.3333333333333L493.45775147788544,342" class="er relationshipLine"/><path style="stroke: gray; fill: none;" marker-start="url(#ZERO_OR_ONE_START)" marker-end="url(#ONLY_ONE_END)" d="M156.71511840820312,317.72554604251957L173.51865514119467,306.1046217020996C190.3221918741862,294.48369736167973,223.92926534016928,271.24184868083984,243.73040399162605,251.28759100708658C263.5315426430828,231.33333333333334,269.5267464800133,214.66666666666666,272.5243483984785,206.33333333333334L275.52195031694373,198" class="er relationshipLine"/><path style="stroke: gray; fill: none;" marker-start="url(#ZERO_OR_ONE_START)" marker-end="url(#ZERO_OR_ONE_END)" d="M156.71511840820312,331.897678066736L168.38178507486978,326.2480650556133C180.04845174153647,320.59845204449067,203.38178507486978,309.29922602224536,217.96511840820312,303.64961301112265C232.54845174153647,298,238.38178507486978,298,244.21511840820312,309.1666666666667C250.04845174153647,320.3333333333333,255.88178507486978,342.6666666666667,255.88178507486978,365C255.88178507486978,387.3333333333333,250.04845174153647,409.6666666666667,244.21511840820312,420.8333333333333C238.38178507486978,432,232.54845174153647,432,217.96511840820312,426.35038698887735C203.38178507486978,420.70077397775464,180.04845174153647,409.40154795550933,168.38178507486978,403.7519349443867L156.71511840820312,398.102321933264" class="er relationshipLine"/><path style="stroke: gray; fill: none;" marker-start="url(#ZERO_OR_MORE_START)" marker-end="url(#ZERO_OR_MORE_END)" d="M156.71511840820312,343.3648865958421L180.60400729709204,335.80407216320174C204.49289618598092,328.2432577305614,252.2706739637587,313.1216288652807,282.1317850748698,305.56081443264037C311.9928961859809,298,323.93734063042535,298,335.8817850748698,309.1666666666667C347.8262295193142,320.3333333333333,359.7706739637586,342.6666666666667,359.7706739637586,365C359.7706739637586,387.3333333333333,347.8262295193142,409.6666666666667,335.8817850748698,420.8333333333333C323.93734063042535,432,311.9928961859809,432,282.1317850748698,424.43918556735963C252.2706739637587,416.8783711347193,204.49289618598092,401.7567422694386,180.60400729709204,394.19592783679826L156.71511840820312,386.6351134041579" class="er relationshipLine"/><path style="stroke: gray; fill: none;" marker-start="url(#ZERO_OR_ONE_START)" marker-end="url(#ONLY_ONE_END)" d="M536.5441782372629,342L543.2393349324196,326.3333333333333C549.9344916275763,310.6666666666667,563.3248050178897,279.3333333333333,536.5497583133882,246.38314127350432C509.7747116088867,213.43294921367533,442.8343048095703,178.8658984273507,409.3641014099121,161.58237303418835L375.8938980102539,144.29884764102604" class="er relationshipLine"/><g transform="translate(239.17877960205078,20 )" id="entity-User-818c511a-4a32-5484-ba70-875d765a9175"><rect height="178" width="136.71511840820312" y="0" x="0" class="er entityBox"/><text style="dominant-baseline: middle; text-anchor: middle; font-size: 12px;" transform="translate(68.35755920410156,12)" y="0" x="0" id="text-entity-User-818c511a-4a32-5484-ba70-875d765a9175" class="er entityLabel">User</text><rect height="22" width="54.095550537109375" y="24" x="0" class="er attributeBoxOdd"/><text style="dominant-baseline: middle; font-size: 10.2px;" transform="translate(5,35)" y="0" x="0" id="text-entity-User-818c511a-4a32-5484-ba70-875d765a9175-attr-1-type" class="er entityLabel">String</text><rect height="22" width="58.60394287109375" y="24" x="54.095550537109375" class="er attributeBoxOdd"/><text style="dominant-baseline: middle; font-size: 10.2px;" transform="translate(59.095550537109375,35)" y="0" x="0" id="text-entity-User-818c511a-4a32-5484-ba70-875d765a9175-attr-1-name" class="er entityLabel">id</text><rect height="22" width="24.015625" y="24" x="112.69949340820312" class="er attributeBoxOdd"/><text style="dominant-baseline: middle; font-size: 10.2px;" transform="translate(117.69949340820312,35)" y="0" x="0" id="text-entity-User-818c511a-4a32-5484-ba70-875d765a9175-attr-1-comment" class="er entityLabel">🗝️</text><rect height="22" width="54.095550537109375" y="46" x="0" class="er attributeBoxEven"/><text style="dominant-baseline: middle; font-size: 10.2px;" transform="translate(5,57)" y="0" x="0" id="text-entity-User-818c511a-4a32-5484-ba70-875d765a9175-attr-2-type" class="er entityLabel">String</text><rect height="22" width="58.60394287109375" y="46" x="54.095550537109375" class="er attributeBoxEven"/><text style="dominant-baseline: middle; font-size: 10.2px;" transform="translate(59.095550537109375,57)" y="0" x="0" id="text-entity-User-818c511a-4a32-5484-ba70-875d765a9175-attr-2-name" class="er entityLabel">email</text><rect height="22" width="24.015625" y="46" x="112.69949340820312" class="er attributeBoxEven"/><text style="dominant-baseline: middle; font-size: 10.2px;" transform="translate(117.69949340820312,57)" y="0" x="0" id="text-entity-User-818c511a-4a32-5484-ba70-875d765a9175-attr-2-comment" class="er entityLabel"/><rect height="22" width="54.095550537109375" y="68" x="0" class="er attributeBoxOdd"/><text style="dominant-baseline: middle; font-size: 10.2px;" transform="translate(5,79)" y="0" x="0" id="text-entity-User-818c511a-4a32-5484-ba70-875d765a9175-attr-3-type" class="er entityLabel">String</text><rect height="22" width="58.60394287109375" y="68" x="54.095550537109375" class="er attributeBoxOdd"/><text style="dominant-baseline: middle; font-size: 10.2px;" transform="translate(59.095550537109375,79)" y="0" x="0" id="text-entity-User-818c511a-4a32-5484-ba70-875d765a9175-attr-3-name" class="er entityLabel">username</text><rect height="22" width="24.015625" y="68" x="112.69949340820312" class="er attributeBoxOdd"/><text style="dominant-baseline: middle; font-size: 10.2px;" transform="translate(117.69949340820312,79)" y="0" x="0" id="text-entity-User-818c511a-4a32-5484-ba70-875d765a9175-attr-3-comment" class="er entityLabel"/><rect height="22" width="54.095550537109375" y="90" x="0" class="er attributeBoxEven"/><text style="dominant-baseline: middle; font-size: 10.2px;" transform="translate(5,101)" y="0" x="0" id="text-entity-User-818c511a-4a32-5484-ba70-875d765a9175-attr-4-type" class="er entityLabel">String</text><rect height="22" width="58.60394287109375" y="90" x="54.095550537109375" class="er attributeBoxEven"/><text style="dominant-baseline: middle; font-size: 10.2px;" transform="translate(59.095550537109375,101)" y="0" x="0" id="text-entity-User-818c511a-4a32-5484-ba70-875d765a9175-attr-4-name" class="er entityLabel">firstname</text><rect height="22" width="24.015625" y="90" x="112.69949340820312" class="er attributeBoxEven"/><text style="dominant-baseline: middle; font-size: 10.2px;" transform="translate(117.69949340820312,101)" y="0" x="0" id="text-entity-User-818c511a-4a32-5484-ba70-875d765a9175-attr-4-comment" class="er entityLabel">❓</text><rect height="22" width="54.095550537109375" y="112" x="0" class="er attributeBoxOdd"/><text style="dominant-baseline: middle; font-size: 10.2px;" transform="translate(5,123)" y="0" x="0" id="text-entity-User-818c511a-4a32-5484-ba70-875d765a9175-attr-5-type" class="er entityLabel">String</text><rect height="22" width="58.60394287109375" y="112" x="54.095550537109375" class="er attributeBoxOdd"/><text style="dominant-baseline: middle; font-size: 10.2px;" transform="translate(59.095550537109375,123)" y="0" x="0" id="text-entity-User-818c511a-4a32-5484-ba70-875d765a9175-attr-5-name" class="er entityLabel">lastname</text><rect height="22" width="24.015625" y="112" x="112.69949340820312" class="er attributeBoxOdd"/><text style="dominant-baseline: middle; font-size: 10.2px;" transform="translate(117.69949340820312,123)" y="0" x="0" id="text-entity-User-818c511a-4a32-5484-ba70-875d765a9175-attr-5-comment" class="er entityLabel">❓</text><rect height="22" width="54.095550537109375" y="134" x="0" class="er attributeBoxEven"/><text style="dominant-baseline: middle; font-size: 10.2px;" transform="translate(5,145)" y="0" x="0" id="text-entity-User-818c511a-4a32-5484-ba70-875d765a9175-attr-6-type" class="er entityLabel">DateTime</text><rect height="22" width="58.60394287109375" y="134" x="54.095550537109375" class="er attributeBoxEven"/><text style="dominant-baseline: middle; font-size: 10.2px;" transform="translate(59.095550537109375,145)" y="0" x="0" id="text-entity-User-818c511a-4a32-5484-ba70-875d765a9175-attr-6-name" class="er entityLabel">createdAt</text><rect height="22" width="24.015625" y="134" x="112.69949340820312" class="er attributeBoxEven"/><text style="dominant-baseline: middle; font-size: 10.2px;" transform="translate(117.69949340820312,145)" y="0" x="0" id="text-entity-User-818c511a-4a32-5484-ba70-875d765a9175-attr-6-comment" class="er entityLabel"/><rect height="22" width="54.095550537109375" y="156" x="0" class="er attributeBoxOdd"/><text style="dominant-baseline: middle; font-size: 10.2px;" transform="translate(5,167)" y="0" x="0" id="text-entity-User-818c511a-4a32-5484-ba70-875d765a9175-attr-7-type" class="er entityLabel">DateTime</text><rect height="22" width="58.60394287109375" y="156" x="54.095550537109375" class="er attributeBoxOdd"/><text style="dominant-baseline: middle; font-size: 10.2px;" transform="translate(59.095550537109375,167)" y="0" x="0" id="text-entity-User-818c511a-4a32-5484-ba70-875d765a9175-attr-7-name" class="er entityLabel">updatedAt</text><rect height="22" width="24.015625" y="156" x="112.69949340820312" class="er attributeBoxOdd"/><text style="dominant-baseline: middle; font-size: 10.2px;" transform="translate(117.69949340820312,167)" y="0" x="0" id="text-entity-User-818c511a-4a32-5484-ba70-875d765a9175-attr-7-comment" class="er entityLabel"/></g><g transform="translate(20,298 )" id="entity-Comment-09a819da-2a79-5b7d-8a84-94cec22d9152"><rect height="134" width="136.71511840820312" y="0" x="0" class="er entityBox"/><text style="dominant-baseline: middle; text-anchor: middle; font-size: 12px;" transform="translate(68.35755920410156,12)" y="0" x="0" id="text-entity-Comment-09a819da-2a79-5b7d-8a84-94cec22d9152" class="er entityLabel">Comment</text><rect height="22" width="54.095550537109375" y="24" x="0" class="er attributeBoxOdd"/><text style="dominant-baseline: middle; font-size: 10.2px;" transform="translate(5,35)" y="0" x="0" id="text-entity-Comment-09a819da-2a79-5b7d-8a84-94cec22d9152-attr-1-type" class="er entityLabel">String</text><rect height="22" width="58.60394287109375" y="24" x="54.095550537109375" class="er attributeBoxOdd"/><text style="dominant-baseline: middle; font-size: 10.2px;" transform="translate(59.095550537109375,35)" y="0" x="0" id="text-entity-Comment-09a819da-2a79-5b7d-8a84-94cec22d9152-attr-1-name" class="er entityLabel">id</text><rect height="22" width="24.015625" y="24" x="112.69949340820312" class="er attributeBoxOdd"/><text style="dominant-baseline: middle; font-size: 10.2px;" transform="translate(117.69949340820312,35)" y="0" x="0" id="text-entity-Comment-09a819da-2a79-5b7d-8a84-94cec22d9152-attr-1-comment" class="er entityLabel">🗝️</text><rect height="22" width="54.095550537109375" y="46" x="0" class="er attributeBoxEven"/><text style="dominant-baseline: middle; font-size: 10.2px;" transform="translate(5,57)" y="0" x="0" id="text-entity-Comment-09a819da-2a79-5b7d-8a84-94cec22d9152-attr-2-type" class="er entityLabel">String</text><rect height="22" width="58.60394287109375" y="46" x="54.095550537109375" class="er attributeBoxEven"/><text style="dominant-baseline: middle; font-size: 10.2px;" transform="translate(59.095550537109375,57)" y="0" x="0" id="text-entity-Comment-09a819da-2a79-5b7d-8a84-94cec22d9152-attr-2-name" class="er entityLabel">content</text><rect height="22" width="24.015625" y="46" x="112.69949340820312" class="er attributeBoxEven"/><text style="dominant-baseline: middle; font-size: 10.2px;" transform="translate(117.69949340820312,57)" y="0" x="0" id="text-entity-Comment-09a819da-2a79-5b7d-8a84-94cec22d9152-attr-2-comment" class="er entityLabel"/><rect height="22" width="54.095550537109375" y="68" x="0" class="er attributeBoxOdd"/><text style="dominant-baseline: middle; font-size: 10.2px;" transform="translate(5,79)" y="0" x="0" id="text-entity-Comment-09a819da-2a79-5b7d-8a84-94cec22d9152-attr-3-type" class="er entityLabel">Int</text><rect height="22" width="58.60394287109375" y="68" x="54.095550537109375" class="er attributeBoxOdd"/><text style="dominant-baseline: middle; font-size: 10.2px;" transform="translate(59.095550537109375,79)" y="0" x="0" id="text-entity-Comment-09a819da-2a79-5b7d-8a84-94cec22d9152-attr-3-name" class="er entityLabel">votes</text><rect height="22" width="24.015625" y="68" x="112.69949340820312" class="er attributeBoxOdd"/><text style="dominant-baseline: middle; font-size: 10.2px;" transform="translate(117.69949340820312,79)" y="0" x="0" id="text-entity-Comment-09a819da-2a79-5b7d-8a84-94cec22d9152-attr-3-comment" class="er entityLabel"/><rect height="22" width="54.095550537109375" y="90" x="0" class="er attributeBoxEven"/><text style="dominant-baseline: middle; font-size: 10.2px;" transform="translate(5,101)" y="0" x="0" id="text-entity-Comment-09a819da-2a79-5b7d-8a84-94cec22d9152-attr-4-type" class="er entityLabel">DateTime</text><rect height="22" width="58.60394287109375" y="90" x="54.095550537109375" class="er attributeBoxEven"/><text style="dominant-baseline: middle; font-size: 10.2px;" transform="translate(59.095550537109375,101)" y="0" x="0" id="text-entity-Comment-09a819da-2a79-5b7d-8a84-94cec22d9152-attr-4-name" class="er entityLabel">createdAt</text><rect height="22" width="24.015625" y="90" x="112.69949340820312" class="er attributeBoxEven"/><text style="dominant-baseline: middle; font-size: 10.2px;" transform="translate(117.69949340820312,101)" y="0" x="0" id="text-entity-Comment-09a819da-2a79-5b7d-8a84-94cec22d9152-attr-4-comment" class="er entityLabel"/><rect height="22" width="54.095550537109375" y="112" x="0" class="er attributeBoxOdd"/><text style="dominant-baseline: middle; font-size: 10.2px;" transform="translate(5,123)" y="0" x="0" id="text-entity-Comment-09a819da-2a79-5b7d-8a84-94cec22d9152-attr-5-type" class="er entityLabel">DateTime</text><rect height="22" width="58.60394287109375" y="112" x="54.095550537109375" class="er attributeBoxOdd"/><text style="dominant-baseline: middle; font-size: 10.2px;" transform="translate(59.095550537109375,123)" y="0" x="0" id="text-entity-Comment-09a819da-2a79-5b7d-8a84-94cec22d9152-attr-5-name" class="er entityLabel">updatedAt</text><rect height="22" width="24.015625" y="112" x="112.69949340820312" class="er attributeBoxOdd"/><text style="dominant-baseline: middle; font-size: 10.2px;" transform="translate(117.69949340820312,123)" y="0" x="0" id="text-entity-Comment-09a819da-2a79-5b7d-8a84-94cec22d9152-attr-5-comment" class="er entityLabel"/></g><g transform="translate(476.7151184082031,342 )" id="entity-UserImage-5b082f7e-732a-581d-b322-f1377dba0d46"><rect height="46" width="100" y="0" x="0" class="er entityBox"/><text style="dominant-baseline: middle; text-anchor: middle; font-size: 12px;" transform="translate(50,12)" y="0" x="0" id="text-entity-UserImage-5b082f7e-732a-581d-b322-f1377dba0d46" class="er entityLabel">UserImage</text><rect height="22" width="43.95596822102865" y="24" x="0" class="er attributeBoxOdd"/><text style="dominant-baseline: middle; font-size: 10.2px;" transform="translate(5,35)" y="0" x="0" id="text-entity-UserImage-5b082f7e-732a-581d-b322-f1377dba0d46-attr-1-type" class="er entityLabel">String</text><rect height="22" width="25.468495686848957" y="24" x="43.95596822102865" class="er attributeBoxOdd"/><text style="dominant-baseline: middle; font-size: 10.2px;" transform="translate(48.95596822102865,35)" y="0" x="0" id="text-entity-UserImage-5b082f7e-732a-581d-b322-f1377dba0d46-attr-1-name" class="er entityLabel">id</text><rect height="22" width="30.575536092122395" y="24" x="69.42446390787761" class="er attributeBoxOdd"/><text style="dominant-baseline: middle; font-size: 10.2px;" transform="translate(74.42446390787761,35)" y="0" x="0" id="text-entity-UserImage-5b082f7e-732a-581d-b322-f1377dba0d46-attr-1-comment" class="er entityLabel">🗝️</text></g><rect height="14" width="55.162109375" y="198.01254272460938" x="98.11215209960938" class="er relationshipLabelBox"/><text style="text-anchor: middle; dominant-baseline: middle; font-size: 12px;" y="205.01254272460938" x="125.69320678710938" id="rel1" class="er relationshipLabel">comments</text><rect height="14" width="55.251953125" y="272.62908935546875" x="378.5311584472656" class="er relationshipLabelBox"/><text style="text-anchor: middle; dominant-baseline: middle; font-size: 12px;" y="279.62908935546875" x="406.1571350097656" id="rel2" class="er relationshipLabel">userImage</text><rect height="14" width="36.615234375" y="259.99859619140625" x="208.02662658691406" class="er relationshipLabelBox"/><text style="text-anchor: middle; dominant-baseline: middle; font-size: 12px;" y="266.99859619140625" x="226.33424377441406" id="rel3" class="er relationshipLabel">author</text><rect height="14" width="87.154296875" y="358.0000305175781" x="212.3046417236328" class="er relationshipLabelBox"/><text style="text-anchor: middle; dominant-baseline: middle; font-size: 12px;" y="365.0000305175781" x="255.8817901611328" id="rel4" class="er relationshipLabel">parentComment</text><rect height="14" width="82.54296875" y="358.0000305175781" x="318.4991760253906" class="er relationshipLabelBox"/><text style="text-anchor: middle; dominant-baseline: middle; font-size: 12px;" y="365.0000305175781" x="359.7706604003906" id="rel5" class="er relationshipLabel">childComments</text><rect height="14" width="36.615234375" y="209.7079315185547" x="485.1581726074219" class="er relationshipLabelBox"/><text style="text-anchor: middle; dominant-baseline: middle; font-size: 12px;" y="216.7079315185547" x="503.4657897949219" id="rel6" class="er relationshipLabel">author</text></svg>