<svg aria-roledescription="er" role="graphics-document document" viewBox="0 0 1465.8035888671875 854" style="max-width: 1465.8px; background-color: white;" xmlns:xlink="http://www.w3.org/1999/xlink" xmlns="http://www.w3.org/2000/svg" width="100%" id="my-svg"><style>#my-svg{font-family:"trebuchet ms",verdana,arial,sans-serif;font-size:16px;fill:#000000;}#my-svg .error-icon{fill:#552222;}#my-svg .error-text{fill:#552222;stroke:#552222;}#my-svg .edge-thickness-normal{stroke-width:2px;}#my-svg .edge-thickness-thick{stroke-width:3.5px;}#my-svg .edge-pattern-solid{stroke-dasharray:0;}#my-svg .edge-pattern-dashed{stroke-dasharray:3;}#my-svg .edge-pattern-dotted{stroke-dasharray:2;}#my-svg .marker{fill:#000000;stroke:#000000;}#my-svg .marker.cross{stroke:#000000;}#my-svg svg{font-family:"trebuchet ms",verdana,arial,sans-serif;font-size:16px;}#my-svg .entityBox{fill:#cde498;stroke:#13540c;}#my-svg .attributeBoxOdd{fill:#ffffff;stroke:#13540c;}#my-svg .attributeBoxEven{fill:#f2f2f2;stroke:#13540c;}#my-svg .relationshipLabelBox{fill:hsl(78.1578947368, 58.4615384615%, 84.5098039216%);opacity:0.7;background-color:hsl(78.1578947368, 58.4615384615%, 84.5098039216%);}#my-svg .relationshipLabelBox rect{opacity:0.5;}#my-svg .relationshipLine{stroke:#000000;}#my-svg .entityTitleText{text-anchor:middle;font-size:18px;fill:#000000;}#my-svg #MD_PARENT_START{fill:#f5f5f5!important;stroke:#000000!important;stroke-width:1;}#my-svg #MD_PARENT_END{fill:#f5f5f5!important;stroke:#000000!important;stroke-width:1;}#my-svg :root{--mermaid-font-family:"trebuchet ms",verdana,arial,sans-serif;}</style><g/><defs><marker orient="auto" markerHeight="240" markerWidth="190" refY="7" refX="0" id="MD_PARENT_START"><path d="M 18,7 L9,13 L1,7 L9,1 Z"/></marker></defs><defs><marker orient="auto" markerHeight="28" markerWidth="20" refY="7" refX="19" id="MD_PARENT_END"><path d="M 18,7 L9,13 L1,7 L9,1 Z"/></marker></defs><defs><marker orient="auto" markerHeight="18" markerWidth="18" refY="9" refX="0" id="ONLY_ONE_START"><path d="M9,0 L9,18 M15,0 L15,18" fill="none" stroke="gray"/></marker></defs><defs><marker orient="auto" markerHeight="18" markerWidth="18" refY="9" refX="18" id="ONLY_ONE_END"><path d="M3,0 L3,18 M9,0 L9,18" fill="none" stroke="gray"/></marker></defs><defs><marker orient="auto" markerHeight="18" markerWidth="30" refY="9" refX="0" id="ZERO_OR_ONE_START"><circle r="6" cy="9" cx="21" fill="white" stroke="gray"/><path d="M9,0 L9,18" fill="none" stroke="gray"/></marker></defs><defs><marker orient="auto" markerHeight="18" markerWidth="30" refY="9" refX="30" id="ZERO_OR_ONE_END"><circle r="6" cy="9" cx="9" fill="white" stroke="gray"/><path d="M21,0 L21,18" fill="none" stroke="gray"/></marker></defs><defs><marker orient="auto" markerHeight="36" markerWidth="45" refY="18" refX="18" id="ONE_OR_MORE_START"><path d="M0,18 Q 18,0 36,18 Q 18,36 0,18 M42,9 L42,27" fill="none" stroke="gray"/></marker></defs><defs><marker orient="auto" markerHeight="36" markerWidth="45" refY="18" refX="27" id="ONE_OR_MORE_END"><path d="M3,9 L3,27 M9,18 Q27,0 45,18 Q27,36 9,18" fill="none" stroke="gray"/></marker></defs><defs><marker orient="auto" markerHeight="36" markerWidth="57" refY="18" refX="18" id="ZERO_OR_MORE_START"><circle r="6" cy="18" cx="48" fill="white" stroke="gray"/><path d="M0,18 Q18,0 36,18 Q18,36 0,18" fill="none" stroke="gray"/></marker></defs><defs><marker orient="auto" markerHeight="36" markerWidth="57" refY="18" refX="39" id="ZERO_OR_MORE_END"><circle r="6" cy="18" cx="9" fill="white" stroke="gray"/><path d="M21,18 Q39,0 57,18 Q39,36 21,18" fill="none" stroke="gray"/></marker></defs><path style="stroke: gray; fill: none;" marker-start="url(#ZERO_OR_MORE_START)" marker-end="url(#ZERO_OR_MORE_END)" d="M514.9096374511719,125.86890482135652L432.42469787597656,146.22408735113044C349.93975830078125,166.57926988090435,184.96987915039062,207.28963494045217,108.60473124186198,243.31148413689274C32.239583333333336,279.3333333333333,44.479166666666664,310.6666666666667,50.598958333333336,326.3333333333333L56.71875,342" class="er relationshipLine"/><path style="stroke: gray; fill: none;" marker-start="url(#ZERO_OR_MORE_START)" marker-end="url(#ZERO_OR_MORE_END)" d="M651.624755859375,179.81373640116857L662.5949592590332,191.17811366764047C673.5651626586914,202.54249093411238,695.5055694580078,225.27124546705622,717.4459762573242,247.10066079186194C739.3863830566406,268.9300761166677,761.326789855957,289.8601522333354,772.2969932556152,300.32519029166923L783.2671966552734,310.7902283500031" class="er relationshipLine"/><path style="stroke: gray; fill: none;" marker-start="url(#ZERO_OR_MORE_START)" marker-end="url(#ZERO_OR_MORE_END)" d="M651.624755859375,149.5745590848015L679.2616259256998,165.97879923733458C706.8984959920248,182.3830393898677,762.1722361246744,215.19151969493385,792.523826966683,241.76242651413358C822.8754178086916,268.3333333333333,828.3048593600591,288.6666666666667,831.0195801357428,298.8333333333333L833.7343009114265,309" class="er relationshipLine"/><path style="stroke: gray; fill: none;" marker-start="url(#ZERO_OR_MORE_START)" marker-end="url(#ZERO_OR_MORE_END)" d="M514.9096374511719,137.08933536364526L469.92469787597656,155.57444613637105C424.93975830078125,174.05955690909684,334.9698791503906,211.0297784545484,289.9849395751953,250.84822256060752C245,290.6666666666667,245,333.3333333333333,245,376C245,418.6666666666667,245,461.3333333333333,245,500.3333333333333C245,539.3333333333334,245,574.6666666666666,245,610C245,645.3333333333334,245,680.6666666666666,371.2017822265625,711.3147542747979C497.403564453125,741.9628418829292,749.80712890625,767.9256837658581,876.0089111328125,780.9071047073227L1002.210693359375,793.8885256487872" class="er relationshipLine"/><path style="stroke: gray; fill: none;" marker-start="url(#ZERO_OR_MORE_START)" marker-end="url(#ZERO_OR_MORE_END)" d="M605.1514512206153,198L607.2005387267335,206.33333333333334C609.2496262328516,214.66666666666666,613.3478012450879,231.33333333333334,615.3968887512061,261C617.4459762573242,290.6666666666667,617.4459762573242,333.3333333333333,617.4459762573242,376C617.4459762573242,418.6666666666667,617.4459762573242,461.3333333333333,680.082846323649,497.6144951806243C742.719716389974,533.8956570279153,867.9934565226237,563.7913140558305,930.6303265889486,578.7391425697882L993.2671966552734,593.6869710837458" class="er relationshipLine"/><path style="stroke: gray; fill: none;" marker-start="url(#ZERO_OR_MORE_START)" marker-end="url(#ZERO_OR_MORE_END)" d="M514.9096374511719,156.02783018954312L492.6285292307536,171.35652515795263C470.34742101033527,186.68522012636208,425.7852045694987,217.34261006318104,406.75930468241376,241.00463836492386C387.7334047953288,264.6666666666667,394.2438214619954,281.3333333333333,397.4990297953288,289.6666666666667L400.7542381286621,298" class="er relationshipLine"/><path style="stroke: gray; fill: none;" marker-start="url(#ZERO_OR_ONE_START)" marker-end="url(#ONLY_ONE_END)" d="M83.28125,342L89.40104166666667,326.3333333333333C95.52083333333333,310.6666666666667,107.76041666666667,279.3333333333333,179.69848124186197,243.91836590128082C251.63654581705728,208.50339846922836,383.27309163411456,169.0067969384567,449.09136454264325,149.25849617307088L514.9096374511719,129.51019540768505" class="er relationshipLine"/><path style="stroke: gray; fill: none;" marker-start="url(#ZERO_OR_MORE_START)" marker-end="url(#ZERO_OR_MORE_END)" d="M919.9823150634766,343.80083759094606L932.295783996582,338.00069799245506C944.6092529296875,332.20055839396406,969.2361907958984,320.600279196982,984.6280269622803,314.800139598491C1000.0198631286621,309,1006.1765975952148,309,1012.3333320617676,320.1666666666667C1018.4900665283203,331.3333333333333,1024.646800994873,353.6666666666667,1024.646800994873,376C1024.646800994873,398.3333333333333,1018.4900665283203,420.6666666666667,1012.3333320617676,431.8333333333333C1006.1765975952148,443,1000.0198631286621,443,984.6280269622803,437.19986040150894C969.2361907958984,431.399720803018,944.6092529296875,419.799441606036,932.295783996582,413.99930200754494L919.9823150634766,408.19916240905394" class="er relationshipLine"/><path style="stroke: gray; fill: none;" marker-start="url(#ZERO_OR_MORE_START)" marker-end="url(#ZERO_OR_MORE_END)" d="M903.968505859375,309L911.9112141927084,298.8333333333333C919.8539225260416,288.6666666666667,935.7393391927084,268.3333333333333,893.6820475260416,239.29912933414485C851.624755859375,210.2649253349564,751.624755859375,172.52985066991278,701.624755859375,153.66231333739094L651.624755859375,134.79477600486914" class="er relationshipLine"/><path style="stroke: gray; fill: none;" marker-start="url(#ZERO_OR_ONE_START)" marker-end="url(#ONLY_ONE_END)" d="M919.9823150634766,332.251162109375L941.922721862793,318.2093017578125C963.8631286621094,304.16744140625,1007.7439422607422,276.083720703125,963.017682393392,242.2564069419626C918.2914225260416,208.42909318080024,784.9580891927084,168.8581863616005,718.2914225260416,149.07273295200062L651.624755859375,129.28727954240074" class="er relationshipLine"/><path style="stroke: gray; fill: none;" marker-start="url(#ZERO_OR_ONE_START)" marker-end="url(#ONLY_ONE_END)" d="M851.624755859375,443L851.624755859375,453.1666666666667C851.624755859375,463.3333333333333,851.624755859375,483.6666666666667,875.231829325358,505.74928470187723C898.8389027913412,527.8319027370877,946.0530497233073,551.6638054741753,969.6601231892904,563.5797568427192L993.2671966552734,575.495708211263" class="er relationshipLine"/><path style="stroke: gray; fill: none;" marker-start="url(#ZERO_OR_ONE_START)" marker-end="url(#ZERO_OR_ONE_END)" d="M919.9823150634766,354.75437111499247L944.5180062188043,347.1286425958271C969.053697374132,339.5029140766616,1018.1250796847875,324.2514570383308,1048.794693628947,316.6257285191654C1079.4643075731067,309,1091.7321531507703,309,1103.9999987284343,320.1666666666667C1116.267844306098,331.3333333333333,1128.535689883762,353.6666666666667,1128.5356898837617,376C1128.535689883762,398.3333333333333,1116.267844306098,420.6666666666667,1103.9999987284343,431.8333333333333C1091.7321531507703,443,1079.4643075731067,443,1048.794693628947,435.3742714808346C1018.1250796847875,427.7485429616692,969.053697374132,412.4970859233384,944.5180062188043,404.8713574041729L919.9823150634766,397.24562888500753" class="er relationshipLine"/><path style="stroke: gray; fill: none;" marker-start="url(#ZERO_OR_ONE_START)" marker-end="url(#ONLY_ONE_END)" d="M461.6917381286621,298L464.9469464619954,289.6666666666667C468.2021547953288,281.3333333333333,474.7125714619954,264.6666666666667,484.08553810028144,248C493.45850473856757,231.33333333333334,505.694021348473,214.66666666666666,511.8117796534257,206.33333333333334L517.9295379583784,198" class="er relationshipLine"/><path style="stroke: gray; fill: none;" marker-start="url(#ZERO_OR_MORE_START)" marker-end="url(#ZERO_OR_MORE_END)" d="M1129.9823150634766,570.6583272443722L1149.285851796468,559.5486060369768C1168.5893885294597,548.4388848295815,1207.1964619954426,526.2194424147907,1226.4999987284343,493.77638787406204C1245.8035354614258,461.3333333333333,1245.8035354614258,418.6666666666667,1245.8035354614258,376C1245.8035354614258,333.3333333333333,1245.8035354614258,290.6666666666667,1146.773738861084,248.55690052324564C1047.7439422607422,206.44713437982463,849.6843490600586,164.8942687596493,750.6545524597168,144.1178359495616L651.624755859375,123.34140313947393" class="er relationshipLine"/><path style="stroke: gray; fill: none;" marker-start="url(#ZERO_OR_MORE_START)" marker-end="url(#ZERO_OR_MORE_END)" d="M993.2671966552734,622.4842853321505L907.9264952341715,638.0702377767922C822.5857938130697,653.6561902214337,651.9043909708658,684.8280951107168,653.3949737548828,712.980907752473C654.8855565388998,741.1337203942289,828.5481249491373,766.2674407884579,915.3794091542562,778.8343009855724L1002.210693359375,791.4011611826869" class="er relationshipLine"/><path style="stroke: gray; fill: none;" marker-start="url(#ZERO_OR_MORE_START)" marker-end="url(#ZERO_OR_MORE_END)" d="M1129.9823150634766,584.5023140511L1165.9525184631348,571.0852617092501C1201.922721862793,557.6682093674,1273.8631286621094,530.8341046837,1238.8631286621094,499.0346644083343C1203.8631286621094,467.2352241329686,1061.922721862793,430.4704482659372,990.9525184631348,412.0880603324215L919.9823150634766,393.70567239890585" class="er relationshipLine"/><path style="stroke: gray; fill: none;" marker-start="url(#ZERO_OR_ONE_START)" marker-end="url(#ONLY_ONE_END)" d="M1121.038818359375,780.036875L1152.8031412760417,769.3640624999999C1184.5674641927083,758.69125,1248.0961100260417,737.3456249999999,1249.5866928100586,713.8367466837566C1251.0772755940754,690.327868367513,1190.5297953287761,664.655736735026,1160.2560551961262,651.8196709187825L1129.9823150634766,638.9836051025391" class="er relationshipLine"/><path style="stroke: gray; fill: none;" marker-start="url(#ZERO_OR_ONE_START)" marker-end="url(#ONLY_ONE_END)" d="M1121.038818359375,787.0092219690799L1175.1662712097168,775.1743516409C1229.2937240600586,763.3394813127201,1337.5486297607422,739.66974065636,1391.676082611084,710.1682036615133C1445.8035354614258,680.6666666666666,1445.8035354614258,645.3333333333334,1445.8035354614258,610C1445.8035354614258,574.6666666666666,1445.8035354614258,539.3333333333334,1445.8035354614258,500.3333333333333C1445.8035354614258,461.3333333333333,1445.8035354614258,418.6666666666667,1445.8035354614258,376C1445.8035354614258,333.3333333333333,1445.8035354614258,290.6666666666667,1313.4404055277507,248.00266674803166C1181.0772755940754,205.33866682939663,916.3510157267252,162.6773336587933,783.9878857930502,141.3466670734916L651.624755859375,120.01600048818992" class="er relationshipLine"/><g transform="translate(514.9096374511719,20 )" id="entity-User-818c511a-4a32-5484-ba70-875d765a9175"><rect height="178" width="136.71511840820312" y="0" x="0" class="er entityBox"/><text style="dominant-baseline: middle; text-anchor: middle; font-size: 12px;" transform="translate(68.35755920410156,12)" y="0" x="0" id="text-entity-User-818c511a-4a32-5484-ba70-875d765a9175" class="er entityLabel">User</text><rect height="22" width="54.095550537109375" y="24" x="0" class="er attributeBoxOdd"/><text style="dominant-baseline: middle; font-size: 10.2px;" transform="translate(5,35)" y="0" x="0" id="text-entity-User-818c511a-4a32-5484-ba70-875d765a9175-attr-1-type" class="er entityLabel">String</text><rect height="22" width="58.60394287109375" y="24" x="54.095550537109375" class="er attributeBoxOdd"/><text style="dominant-baseline: middle; font-size: 10.2px;" transform="translate(59.095550537109375,35)" y="0" x="0" id="text-entity-User-818c511a-4a32-5484-ba70-875d765a9175-attr-1-name" class="er entityLabel">id</text><rect height="22" width="24.015625" y="24" x="112.69949340820312" class="er attributeBoxOdd"/><text style="dominant-baseline: middle; font-size: 10.2px;" transform="translate(117.69949340820312,35)" y="0" x="0" id="text-entity-User-818c511a-4a32-5484-ba70-875d765a9175-attr-1-comment" class="er entityLabel">🗝️</text><rect height="22" width="54.095550537109375" y="46" x="0" class="er attributeBoxEven"/><text style="dominant-baseline: middle; font-size: 10.2px;" transform="translate(5,57)" y="0" x="0" id="text-entity-User-818c511a-4a32-5484-ba70-875d765a9175-attr-2-type" class="er entityLabel">String</text><rect height="22" width="58.60394287109375" y="46" x="54.095550537109375" class="er attributeBoxEven"/><text style="dominant-baseline: middle; font-size: 10.2px;" transform="translate(59.095550537109375,57)" y="0" x="0" id="text-entity-User-818c511a-4a32-5484-ba70-875d765a9175-attr-2-name" class="er entityLabel">email</text><rect height="22" width="24.015625" y="46" x="112.69949340820312" class="er attributeBoxEven"/><text style="dominant-baseline: middle; font-size: 10.2px;" transform="translate(117.69949340820312,57)" y="0" x="0" id="text-entity-User-818c511a-4a32-5484-ba70-875d765a9175-attr-2-comment" class="er entityLabel"/><rect height="22" width="54.095550537109375" y="68" x="0" class="er attributeBoxOdd"/><text style="dominant-baseline: middle; font-size: 10.2px;" transform="translate(5,79)" y="0" x="0" id="text-entity-User-818c511a-4a32-5484-ba70-875d765a9175-attr-3-type" class="er entityLabel">String</text><rect height="22" width="58.60394287109375" y="68" x="54.095550537109375" class="er attributeBoxOdd"/><text style="dominant-baseline: middle; font-size: 10.2px;" transform="translate(59.095550537109375,79)" y="0" x="0" id="text-entity-User-818c511a-4a32-5484-ba70-875d765a9175-attr-3-name" class="er entityLabel">username</text><rect height="22" width="24.015625" y="68" x="112.69949340820312" class="er attributeBoxOdd"/><text style="dominant-baseline: middle; font-size: 10.2px;" transform="translate(117.69949340820312,79)" y="0" x="0" id="text-entity-User-818c511a-4a32-5484-ba70-875d765a9175-attr-3-comment" class="er entityLabel"/><rect height="22" width="54.095550537109375" y="90" x="0" class="er attributeBoxEven"/><text style="dominant-baseline: middle; font-size: 10.2px;" transform="translate(5,101)" y="0" x="0" id="text-entity-User-818c511a-4a32-5484-ba70-875d765a9175-attr-4-type" class="er entityLabel">String</text><rect height="22" width="58.60394287109375" y="90" x="54.095550537109375" class="er attributeBoxEven"/><text style="dominant-baseline: middle; font-size: 10.2px;" transform="translate(59.095550537109375,101)" y="0" x="0" id="text-entity-User-818c511a-4a32-5484-ba70-875d765a9175-attr-4-name" class="er entityLabel">firstname</text><rect height="22" width="24.015625" y="90" x="112.69949340820312" class="er attributeBoxEven"/><text style="dominant-baseline: middle; font-size: 10.2px;" transform="translate(117.69949340820312,101)" y="0" x="0" id="text-entity-User-818c511a-4a32-5484-ba70-875d765a9175-attr-4-comment" class="er entityLabel">❓</text><rect height="22" width="54.095550537109375" y="112" x="0" class="er attributeBoxOdd"/><text style="dominant-baseline: middle; font-size: 10.2px;" transform="translate(5,123)" y="0" x="0" id="text-entity-User-818c511a-4a32-5484-ba70-875d765a9175-attr-5-type" class="er entityLabel">String</text><rect height="22" width="58.60394287109375" y="112" x="54.095550537109375" class="er attributeBoxOdd"/><text style="dominant-baseline: middle; font-size: 10.2px;" transform="translate(59.095550537109375,123)" y="0" x="0" id="text-entity-User-818c511a-4a32-5484-ba70-875d765a9175-attr-5-name" class="er entityLabel">lastname</text><rect height="22" width="24.015625" y="112" x="112.69949340820312" class="er attributeBoxOdd"/><text style="dominant-baseline: middle; font-size: 10.2px;" transform="translate(117.69949340820312,123)" y="0" x="0" id="text-entity-User-818c511a-4a32-5484-ba70-875d765a9175-attr-5-comment" class="er entityLabel">❓</text><rect height="22" width="54.095550537109375" y="134" x="0" class="er attributeBoxEven"/><text style="dominant-baseline: middle; font-size: 10.2px;" transform="translate(5,145)" y="0" x="0" id="text-entity-User-818c511a-4a32-5484-ba70-875d765a9175-attr-6-type" class="er entityLabel">DateTime</text><rect height="22" width="58.60394287109375" y="134" x="54.095550537109375" class="er attributeBoxEven"/><text style="dominant-baseline: middle; font-size: 10.2px;" transform="translate(59.095550537109375,145)" y="0" x="0" id="text-entity-User-818c511a-4a32-5484-ba70-875d765a9175-attr-6-name" class="er entityLabel">createdAt</text><rect height="22" width="24.015625" y="134" x="112.69949340820312" class="er attributeBoxEven"/><text style="dominant-baseline: middle; font-size: 10.2px;" transform="translate(117.69949340820312,145)" y="0" x="0" id="text-entity-User-818c511a-4a32-5484-ba70-875d765a9175-attr-6-comment" class="er entityLabel"/><rect height="22" width="54.095550537109375" y="156" x="0" class="er attributeBoxOdd"/><text style="dominant-baseline: middle; font-size: 10.2px;" transform="translate(5,167)" y="0" x="0" id="text-entity-User-818c511a-4a32-5484-ba70-875d765a9175-attr-7-type" class="er entityLabel">DateTime</text><rect height="22" width="58.60394287109375" y="156" x="54.095550537109375" class="er attributeBoxOdd"/><text style="dominant-baseline: middle; font-size: 10.2px;" transform="translate(59.095550537109375,167)" y="0" x="0" id="text-entity-User-818c511a-4a32-5484-ba70-875d765a9175-attr-7-name" class="er entityLabel">updatedAt</text><rect height="22" width="24.015625" y="156" x="112.69949340820312" class="er attributeBoxOdd"/><text style="dominant-baseline: middle; font-size: 10.2px;" transform="translate(117.69949340820312,167)" y="0" x="0" id="text-entity-User-818c511a-4a32-5484-ba70-875d765a9175-attr-7-comment" class="er entityLabel"/></g><g transform="translate(20,342 )" id="entity-Password-21901b32-bf0e-536e-bcdd-09ed9082306b"><rect height="68" width="100" y="0" x="0" class="er entityBox"/><text style="dominant-baseline: middle; text-anchor: middle; font-size: 12px;" transform="translate(50,12)" y="0" x="0" id="text-entity-Password-21901b32-bf0e-536e-bcdd-09ed9082306b" class="er entityLabel">Password</text><rect height="22" width="39.905192057291664" y="24" x="0" class="er attributeBoxOdd"/><text style="dominant-baseline: middle; font-size: 10.2px;" transform="translate(5,35)" y="0" x="0" id="text-entity-Password-21901b32-bf0e-536e-bcdd-09ed9082306b-attr-1-type" class="er entityLabel">String</text><rect height="22" width="33.570048014322914" y="24" x="39.905192057291664" class="er attributeBoxOdd"/><text style="dominant-baseline: middle; font-size: 10.2px;" transform="translate(44.905192057291664,35)" y="0" x="0" id="text-entity-Password-21901b32-bf0e-536e-bcdd-09ed9082306b-attr-1-name" class="er entityLabel">id</text><rect height="22" width="26.524759928385418" y="24" x="73.47524007161458" class="er attributeBoxOdd"/><text style="dominant-baseline: middle; font-size: 10.2px;" transform="translate(78.47524007161458,35)" y="0" x="0" id="text-entity-Password-21901b32-bf0e-536e-bcdd-09ed9082306b-attr-1-comment" class="er entityLabel">🗝️</text><rect height="22" width="39.905192057291664" y="46" x="0" class="er attributeBoxEven"/><text style="dominant-baseline: middle; font-size: 10.2px;" transform="translate(5,57)" y="0" x="0" id="text-entity-Password-21901b32-bf0e-536e-bcdd-09ed9082306b-attr-2-type" class="er entityLabel">String</text><rect height="22" width="33.570048014322914" y="46" x="39.905192057291664" class="er attributeBoxEven"/><text style="dominant-baseline: middle; font-size: 10.2px;" transform="translate(44.905192057291664,57)" y="0" x="0" id="text-entity-Password-21901b32-bf0e-536e-bcdd-09ed9082306b-attr-2-name" class="er entityLabel">hash</text><rect height="22" width="26.524759928385418" y="46" x="73.47524007161458" class="er attributeBoxEven"/><text style="dominant-baseline: middle; font-size: 10.2px;" transform="translate(78.47524007161458,57)" y="0" x="0" id="text-entity-Password-21901b32-bf0e-536e-bcdd-09ed9082306b-attr-2-comment" class="er entityLabel"/></g><g transform="translate(783.2671966552734,309 )" id="entity-Comment-09a819da-2a79-5b7d-8a84-94cec22d9152"><rect height="134" width="136.71511840820312" y="0" x="0" class="er entityBox"/><text style="dominant-baseline: middle; text-anchor: middle; font-size: 12px;" transform="translate(68.35755920410156,12)" y="0" x="0" id="text-entity-Comment-09a819da-2a79-5b7d-8a84-94cec22d9152" class="er entityLabel">Comment</text><rect height="22" width="54.095550537109375" y="24" x="0" class="er attributeBoxOdd"/><text style="dominant-baseline: middle; font-size: 10.2px;" transform="translate(5,35)" y="0" x="0" id="text-entity-Comment-09a819da-2a79-5b7d-8a84-94cec22d9152-attr-1-type" class="er entityLabel">String</text><rect height="22" width="58.60394287109375" y="24" x="54.095550537109375" class="er attributeBoxOdd"/><text style="dominant-baseline: middle; font-size: 10.2px;" transform="translate(59.095550537109375,35)" y="0" x="0" id="text-entity-Comment-09a819da-2a79-5b7d-8a84-94cec22d9152-attr-1-name" class="er entityLabel">id</text><rect height="22" width="24.015625" y="24" x="112.69949340820312" class="er attributeBoxOdd"/><text style="dominant-baseline: middle; font-size: 10.2px;" transform="translate(117.69949340820312,35)" y="0" x="0" id="text-entity-Comment-09a819da-2a79-5b7d-8a84-94cec22d9152-attr-1-comment" class="er entityLabel">🗝️</text><rect height="22" width="54.095550537109375" y="46" x="0" class="er attributeBoxEven"/><text style="dominant-baseline: middle; font-size: 10.2px;" transform="translate(5,57)" y="0" x="0" id="text-entity-Comment-09a819da-2a79-5b7d-8a84-94cec22d9152-attr-2-type" class="er entityLabel">String</text><rect height="22" width="58.60394287109375" y="46" x="54.095550537109375" class="er attributeBoxEven"/><text style="dominant-baseline: middle; font-size: 10.2px;" transform="translate(59.095550537109375,57)" y="0" x="0" id="text-entity-Comment-09a819da-2a79-5b7d-8a84-94cec22d9152-attr-2-name" class="er entityLabel">content</text><rect height="22" width="24.015625" y="46" x="112.69949340820312" class="er attributeBoxEven"/><text style="dominant-baseline: middle; font-size: 10.2px;" transform="translate(117.69949340820312,57)" y="0" x="0" id="text-entity-Comment-09a819da-2a79-5b7d-8a84-94cec22d9152-attr-2-comment" class="er entityLabel"/><rect height="22" width="54.095550537109375" y="68" x="0" class="er attributeBoxOdd"/><text style="dominant-baseline: middle; font-size: 10.2px;" transform="translate(5,79)" y="0" x="0" id="text-entity-Comment-09a819da-2a79-5b7d-8a84-94cec22d9152-attr-3-type" class="er entityLabel">Int</text><rect height="22" width="58.60394287109375" y="68" x="54.095550537109375" class="er attributeBoxOdd"/><text style="dominant-baseline: middle; font-size: 10.2px;" transform="translate(59.095550537109375,79)" y="0" x="0" id="text-entity-Comment-09a819da-2a79-5b7d-8a84-94cec22d9152-attr-3-name" class="er entityLabel">likes</text><rect height="22" width="24.015625" y="68" x="112.69949340820312" class="er attributeBoxOdd"/><text style="dominant-baseline: middle; font-size: 10.2px;" transform="translate(117.69949340820312,79)" y="0" x="0" id="text-entity-Comment-09a819da-2a79-5b7d-8a84-94cec22d9152-attr-3-comment" class="er entityLabel"/><rect height="22" width="54.095550537109375" y="90" x="0" class="er attributeBoxEven"/><text style="dominant-baseline: middle; font-size: 10.2px;" transform="translate(5,101)" y="0" x="0" id="text-entity-Comment-09a819da-2a79-5b7d-8a84-94cec22d9152-attr-4-type" class="er entityLabel">DateTime</text><rect height="22" width="58.60394287109375" y="90" x="54.095550537109375" class="er attributeBoxEven"/><text style="dominant-baseline: middle; font-size: 10.2px;" transform="translate(59.095550537109375,101)" y="0" x="0" id="text-entity-Comment-09a819da-2a79-5b7d-8a84-94cec22d9152-attr-4-name" class="er entityLabel">createdAt</text><rect height="22" width="24.015625" y="90" x="112.69949340820312" class="er attributeBoxEven"/><text style="dominant-baseline: middle; font-size: 10.2px;" transform="translate(117.69949340820312,101)" y="0" x="0" id="text-entity-Comment-09a819da-2a79-5b7d-8a84-94cec22d9152-attr-4-comment" class="er entityLabel"/><rect height="22" width="54.095550537109375" y="112" x="0" class="er attributeBoxOdd"/><text style="dominant-baseline: middle; font-size: 10.2px;" transform="translate(5,123)" y="0" x="0" id="text-entity-Comment-09a819da-2a79-5b7d-8a84-94cec22d9152-attr-5-type" class="er entityLabel">DateTime</text><rect height="22" width="58.60394287109375" y="112" x="54.095550537109375" class="er attributeBoxOdd"/><text style="dominant-baseline: middle; font-size: 10.2px;" transform="translate(59.095550537109375,123)" y="0" x="0" id="text-entity-Comment-09a819da-2a79-5b7d-8a84-94cec22d9152-attr-5-name" class="er entityLabel">updatedAt</text><rect height="22" width="24.015625" y="112" x="112.69949340820312" class="er attributeBoxOdd"/><text style="dominant-baseline: middle; font-size: 10.2px;" transform="translate(117.69949340820312,123)" y="0" x="0" id="text-entity-Comment-09a819da-2a79-5b7d-8a84-94cec22d9152-attr-5-comment" class="er entityLabel"/></g><g transform="translate(358.7770118713379,298 )" id="entity-UserImage-5b082f7e-732a-581d-b322-f1377dba0d46"><rect height="156" width="144.89195251464844" y="0" x="0" class="er entityBox"/><text style="dominant-baseline: middle; text-anchor: middle; font-size: 12px;" transform="translate(72.44597625732422,12)" y="0" x="0" id="text-entity-UserImage-5b082f7e-732a-581d-b322-f1377dba0d46" class="er entityLabel">UserImage</text><rect height="22" width="54.095550537109375" y="24" x="0" class="er attributeBoxOdd"/><text style="dominant-baseline: middle; font-size: 10.2px;" transform="translate(5,35)" y="0" x="0" id="text-entity-UserImage-5b082f7e-732a-581d-b322-f1377dba0d46-attr-1-type" class="er entityLabel">String</text><rect height="22" width="66.78077697753906" y="24" x="54.095550537109375" class="er attributeBoxOdd"/><text style="dominant-baseline: middle; font-size: 10.2px;" transform="translate(59.095550537109375,35)" y="0" x="0" id="text-entity-UserImage-5b082f7e-732a-581d-b322-f1377dba0d46-attr-1-name" class="er entityLabel">id</text><rect height="22" width="24.015625" y="24" x="120.87632751464844" class="er attributeBoxOdd"/><text style="dominant-baseline: middle; font-size: 10.2px;" transform="translate(125.87632751464844,35)" y="0" x="0" id="text-entity-UserImage-5b082f7e-732a-581d-b322-f1377dba0d46-attr-1-comment" class="er entityLabel">🗝️</text><rect height="22" width="54.095550537109375" y="46" x="0" class="er attributeBoxEven"/><text style="dominant-baseline: middle; font-size: 10.2px;" transform="translate(5,57)" y="0" x="0" id="text-entity-UserImage-5b082f7e-732a-581d-b322-f1377dba0d46-attr-2-type" class="er entityLabel">String</text><rect height="22" width="66.78077697753906" y="46" x="54.095550537109375" class="er attributeBoxEven"/><text style="dominant-baseline: middle; font-size: 10.2px;" transform="translate(59.095550537109375,57)" y="0" x="0" id="text-entity-UserImage-5b082f7e-732a-581d-b322-f1377dba0d46-attr-2-name" class="er entityLabel">altText</text><rect height="22" width="24.015625" y="46" x="120.87632751464844" class="er attributeBoxEven"/><text style="dominant-baseline: middle; font-size: 10.2px;" transform="translate(125.87632751464844,57)" y="0" x="0" id="text-entity-UserImage-5b082f7e-732a-581d-b322-f1377dba0d46-attr-2-comment" class="er entityLabel">❓</text><rect height="22" width="54.095550537109375" y="68" x="0" class="er attributeBoxOdd"/><text style="dominant-baseline: middle; font-size: 10.2px;" transform="translate(5,79)" y="0" x="0" id="text-entity-UserImage-5b082f7e-732a-581d-b322-f1377dba0d46-attr-3-type" class="er entityLabel">String</text><rect height="22" width="66.78077697753906" y="68" x="54.095550537109375" class="er attributeBoxOdd"/><text style="dominant-baseline: middle; font-size: 10.2px;" transform="translate(59.095550537109375,79)" y="0" x="0" id="text-entity-UserImage-5b082f7e-732a-581d-b322-f1377dba0d46-attr-3-name" class="er entityLabel">contentType</text><rect height="22" width="24.015625" y="68" x="120.87632751464844" class="er attributeBoxOdd"/><text style="dominant-baseline: middle; font-size: 10.2px;" transform="translate(125.87632751464844,79)" y="0" x="0" id="text-entity-UserImage-5b082f7e-732a-581d-b322-f1377dba0d46-attr-3-comment" class="er entityLabel"/><rect height="22" width="54.095550537109375" y="90" x="0" class="er attributeBoxEven"/><text style="dominant-baseline: middle; font-size: 10.2px;" transform="translate(5,101)" y="0" x="0" id="text-entity-UserImage-5b082f7e-732a-581d-b322-f1377dba0d46-attr-4-type" class="er entityLabel">String</text><rect height="22" width="66.78077697753906" y="90" x="54.095550537109375" class="er attributeBoxEven"/><text style="dominant-baseline: middle; font-size: 10.2px;" transform="translate(59.095550537109375,101)" y="0" x="0" id="text-entity-UserImage-5b082f7e-732a-581d-b322-f1377dba0d46-attr-4-name" class="er entityLabel">blob</text><rect height="22" width="24.015625" y="90" x="120.87632751464844" class="er attributeBoxEven"/><text style="dominant-baseline: middle; font-size: 10.2px;" transform="translate(125.87632751464844,101)" y="0" x="0" id="text-entity-UserImage-5b082f7e-732a-581d-b322-f1377dba0d46-attr-4-comment" class="er entityLabel"/><rect height="22" width="54.095550537109375" y="112" x="0" class="er attributeBoxOdd"/><text style="dominant-baseline: middle; font-size: 10.2px;" transform="translate(5,123)" y="0" x="0" id="text-entity-UserImage-5b082f7e-732a-581d-b322-f1377dba0d46-attr-5-type" class="er entityLabel">DateTime</text><rect height="22" width="66.78077697753906" y="112" x="54.095550537109375" class="er attributeBoxOdd"/><text style="dominant-baseline: middle; font-size: 10.2px;" transform="translate(59.095550537109375,123)" y="0" x="0" id="text-entity-UserImage-5b082f7e-732a-581d-b322-f1377dba0d46-attr-5-name" class="er entityLabel">createdAt</text><rect height="22" width="24.015625" y="112" x="120.87632751464844" class="er attributeBoxOdd"/><text style="dominant-baseline: middle; font-size: 10.2px;" transform="translate(125.87632751464844,123)" y="0" x="0" id="text-entity-UserImage-5b082f7e-732a-581d-b322-f1377dba0d46-attr-5-comment" class="er entityLabel"/><rect height="22" width="54.095550537109375" y="134" x="0" class="er attributeBoxEven"/><text style="dominant-baseline: middle; font-size: 10.2px;" transform="translate(5,145)" y="0" x="0" id="text-entity-UserImage-5b082f7e-732a-581d-b322-f1377dba0d46-attr-6-type" class="er entityLabel">DateTime</text><rect height="22" width="66.78077697753906" y="134" x="54.095550537109375" class="er attributeBoxEven"/><text style="dominant-baseline: middle; font-size: 10.2px;" transform="translate(59.095550537109375,145)" y="0" x="0" id="text-entity-UserImage-5b082f7e-732a-581d-b322-f1377dba0d46-attr-6-name" class="er entityLabel">updatedAt</text><rect height="22" width="24.015625" y="134" x="120.87632751464844" class="er attributeBoxEven"/><text style="dominant-baseline: middle; font-size: 10.2px;" transform="translate(125.87632751464844,145)" y="0" x="0" id="text-entity-UserImage-5b082f7e-732a-581d-b322-f1377dba0d46-attr-6-comment" class="er entityLabel"/></g><g transform="translate(993.2671966552734,554 )" id="entity-GamePost-1895ae55-04a4-52ba-ab8e-dcaff0cc4ef7"><rect height="112" width="136.71511840820312" y="0" x="0" class="er entityBox"/><text style="dominant-baseline: middle; text-anchor: middle; font-size: 12px;" transform="translate(68.35755920410156,12)" y="0" x="0" id="text-entity-GamePost-1895ae55-04a4-52ba-ab8e-dcaff0cc4ef7" class="er entityLabel">GamePost</text><rect height="22" width="54.095550537109375" y="24" x="0" class="er attributeBoxOdd"/><text style="dominant-baseline: middle; font-size: 10.2px;" transform="translate(5,35)" y="0" x="0" id="text-entity-GamePost-1895ae55-04a4-52ba-ab8e-dcaff0cc4ef7-attr-1-type" class="er entityLabel">String</text><rect height="22" width="58.60394287109375" y="24" x="54.095550537109375" class="er attributeBoxOdd"/><text style="dominant-baseline: middle; font-size: 10.2px;" transform="translate(59.095550537109375,35)" y="0" x="0" id="text-entity-GamePost-1895ae55-04a4-52ba-ab8e-dcaff0cc4ef7-attr-1-name" class="er entityLabel">id</text><rect height="22" width="24.015625" y="24" x="112.69949340820312" class="er attributeBoxOdd"/><text style="dominant-baseline: middle; font-size: 10.2px;" transform="translate(117.69949340820312,35)" y="0" x="0" id="text-entity-GamePost-1895ae55-04a4-52ba-ab8e-dcaff0cc4ef7-attr-1-comment" class="er entityLabel">🗝️</text><rect height="22" width="54.095550537109375" y="46" x="0" class="er attributeBoxEven"/><text style="dominant-baseline: middle; font-size: 10.2px;" transform="translate(5,57)" y="0" x="0" id="text-entity-GamePost-1895ae55-04a4-52ba-ab8e-dcaff0cc4ef7-attr-2-type" class="er entityLabel">String</text><rect height="22" width="58.60394287109375" y="46" x="54.095550537109375" class="er attributeBoxEven"/><text style="dominant-baseline: middle; font-size: 10.2px;" transform="translate(59.095550537109375,57)" y="0" x="0" id="text-entity-GamePost-1895ae55-04a4-52ba-ab8e-dcaff0cc4ef7-attr-2-name" class="er entityLabel">gameId</text><rect height="22" width="24.015625" y="46" x="112.69949340820312" class="er attributeBoxEven"/><text style="dominant-baseline: middle; font-size: 10.2px;" transform="translate(117.69949340820312,57)" y="0" x="0" id="text-entity-GamePost-1895ae55-04a4-52ba-ab8e-dcaff0cc4ef7-attr-2-comment" class="er entityLabel"/><rect height="22" width="54.095550537109375" y="68" x="0" class="er attributeBoxOdd"/><text style="dominant-baseline: middle; font-size: 10.2px;" transform="translate(5,79)" y="0" x="0" id="text-entity-GamePost-1895ae55-04a4-52ba-ab8e-dcaff0cc4ef7-attr-3-type" class="er entityLabel">DateTime</text><rect height="22" width="58.60394287109375" y="68" x="54.095550537109375" class="er attributeBoxOdd"/><text style="dominant-baseline: middle; font-size: 10.2px;" transform="translate(59.095550537109375,79)" y="0" x="0" id="text-entity-GamePost-1895ae55-04a4-52ba-ab8e-dcaff0cc4ef7-attr-3-name" class="er entityLabel">createdAt</text><rect height="22" width="24.015625" y="68" x="112.69949340820312" class="er attributeBoxOdd"/><text style="dominant-baseline: middle; font-size: 10.2px;" transform="translate(117.69949340820312,79)" y="0" x="0" id="text-entity-GamePost-1895ae55-04a4-52ba-ab8e-dcaff0cc4ef7-attr-3-comment" class="er entityLabel"/><rect height="22" width="54.095550537109375" y="90" x="0" class="er attributeBoxEven"/><text style="dominant-baseline: middle; font-size: 10.2px;" transform="translate(5,101)" y="0" x="0" id="text-entity-GamePost-1895ae55-04a4-52ba-ab8e-dcaff0cc4ef7-attr-4-type" class="er entityLabel">DateTime</text><rect height="22" width="58.60394287109375" y="90" x="54.095550537109375" class="er attributeBoxEven"/><text style="dominant-baseline: middle; font-size: 10.2px;" transform="translate(59.095550537109375,101)" y="0" x="0" id="text-entity-GamePost-1895ae55-04a4-52ba-ab8e-dcaff0cc4ef7-attr-4-name" class="er entityLabel">updatedAt</text><rect height="22" width="24.015625" y="90" x="112.69949340820312" class="er attributeBoxEven"/><text style="dominant-baseline: middle; font-size: 10.2px;" transform="translate(117.69949340820312,101)" y="0" x="0" id="text-entity-GamePost-1895ae55-04a4-52ba-ab8e-dcaff0cc4ef7-attr-4-comment" class="er entityLabel"/></g><g transform="translate(1002.210693359375,766 )" id="entity-UserGameRating-b9b47c26-02f2-575b-829a-6f37d1a0dfa2"><rect height="68" width="118.828125" y="0" x="0" class="er entityBox"/><text style="dominant-baseline: middle; text-anchor: middle; font-size: 12px;" transform="translate(59.4140625,12)" y="0" x="0" id="text-entity-UserGameRating-b9b47c26-02f2-575b-829a-6f37d1a0dfa2" class="er entityLabel">UserGameRating</text><rect height="22" width="44.73523457845052" y="24" x="0" class="er attributeBoxOdd"/><text style="dominant-baseline: middle; font-size: 10.2px;" transform="translate(5,35)" y="0" x="0" id="text-entity-UserGameRating-b9b47c26-02f2-575b-829a-6f37d1a0dfa2-attr-1-type" class="er entityLabel">String</text><rect height="22" width="42.73808797200521" y="24" x="44.73523457845052" class="er attributeBoxOdd"/><text style="dominant-baseline: middle; font-size: 10.2px;" transform="translate(49.73523457845052,35)" y="0" x="0" id="text-entity-UserGameRating-b9b47c26-02f2-575b-829a-6f37d1a0dfa2-attr-1-name" class="er entityLabel">id</text><rect height="22" width="31.35480244954427" y="24" x="87.47332255045573" class="er attributeBoxOdd"/><text style="dominant-baseline: middle; font-size: 10.2px;" transform="translate(92.47332255045573,35)" y="0" x="0" id="text-entity-UserGameRating-b9b47c26-02f2-575b-829a-6f37d1a0dfa2-attr-1-comment" class="er entityLabel">🗝️</text><rect height="22" width="44.73523457845052" y="46" x="0" class="er attributeBoxEven"/><text style="dominant-baseline: middle; font-size: 10.2px;" transform="translate(5,57)" y="0" x="0" id="text-entity-UserGameRating-b9b47c26-02f2-575b-829a-6f37d1a0dfa2-attr-2-type" class="er entityLabel">String</text><rect height="22" width="42.73808797200521" y="46" x="44.73523457845052" class="er attributeBoxEven"/><text style="dominant-baseline: middle; font-size: 10.2px;" transform="translate(49.73523457845052,57)" y="0" x="0" id="text-entity-UserGameRating-b9b47c26-02f2-575b-829a-6f37d1a0dfa2-attr-2-name" class="er entityLabel">name</text><rect height="22" width="31.35480244954427" y="46" x="87.47332255045573" class="er attributeBoxEven"/><text style="dominant-baseline: middle; font-size: 10.2px;" transform="translate(92.47332255045573,57)" y="0" x="0" id="text-entity-UserGameRating-b9b47c26-02f2-575b-829a-6f37d1a0dfa2-attr-2-comment" class="er entityLabel"/></g><rect height="14" width="49.73828125" y="188.09181213378906" x="221.70510864257812" class="er relationshipLabelBox"/><text style="text-anchor: middle; dominant-baseline: middle; font-size: 12px;" y="195.09181213378906" x="246.57424926757812" id="rel1" class="er relationshipLabel">password</text><rect height="14" width="55.162109375" y="239.20489501953125" x="688.9668579101562" class="er relationshipLabelBox"/><text style="text-anchor: middle; dominant-baseline: middle; font-size: 12px;" y="246.20489501953125" x="716.5479125976562" id="rel2" class="er relationshipLabel">comments</text><rect height="14" width="82.642578125" y="208.11053466796875" x="716.1736450195312" class="er relationshipLabelBox"/><text style="text-anchor: middle; dominant-baseline: middle; font-size: 12px;" y="215.11053466796875" x="757.4949340820312" id="rel3" class="er relationshipLabel">likedComments</text><rect height="14" width="67.8828125" y="677.6204833984375" x="258.2621765136719" class="er relationshipLabelBox"/><text style="text-anchor: middle; dominant-baseline: middle; font-size: 12px;" y="684.6204833984375" x="292.2035827636719" id="rel4" class="er relationshipLabel">gameRatings</text><rect height="14" width="84.69921875" y="491.534423828125" x="639.3375854492188" class="er relationshipLabelBox"/><text style="text-anchor: middle; dominant-baseline: middle; font-size: 12px;" y="498.534423828125" x="681.6871948242188" id="rel5" class="er relationshipLabel">gameFavourites</text><rect height="14" width="32.7109375" y="207.42808532714844" x="417.8571472167969" class="er relationshipLabelBox"/><text style="text-anchor: middle; dominant-baseline: middle; font-size: 12px;" y="214.42808532714844" x="434.2126159667969" id="rel6" class="er relationshipLabel">image</text><rect height="14" width="23.958984375" y="197.0225372314453" x="266.0579833984375" class="er relationshipLabelBox"/><text style="text-anchor: middle; dominant-baseline: middle; font-size: 12px;" y="204.0225372314453" x="278.0374755859375" id="rel7" class="er relationshipLabel">user</text><rect height="14" width="82.54296875" y="369" x="983.3753662109375" class="er relationshipLabelBox"/><text style="text-anchor: middle; dominant-baseline: middle; font-size: 12px;" y="376" x="1024.6468505859375" id="rel8" class="er relationshipLabel">childComments</text><rect height="14" width="40.03515625" y="191.63890075683594" x="794.5401611328125" class="er relationshipLabelBox"/><text style="text-anchor: middle; dominant-baseline: middle; font-size: 12px;" y="198.63890075683594" x="814.5577392578125" id="rel9" class="er relationshipLabel">likedBy</text><rect height="14" width="23.958984375" y="191.1856231689453" x="858.4874877929688" class="er relationshipLabelBox"/><text style="text-anchor: middle; dominant-baseline: middle; font-size: 12px;" y="198.1856231689453" x="870.4669799804688" id="rel10" class="er relationshipLabel">user</text><rect height="14" width="51.259765625" y="519.144775390625" x="876.5908203125" class="er relationshipLabelBox"/><text style="text-anchor: middle; dominant-baseline: middle; font-size: 12px;" y="526.144775390625" x="902.220703125" id="rel11" class="er relationshipLabel">gamePost</text><rect height="14" width="87.154296875" y="369" x="1084.95849609375" class="er relationshipLabelBox"/><text style="text-anchor: middle; dominant-baseline: middle; font-size: 12px;" y="376" x="1128.53564453125" id="rel12" class="er relationshipLabel">parentComment</text><rect height="14" width="23.958984375" y="238.57701110839844" x="473.4884948730469" class="er relationshipLabelBox"/><text style="text-anchor: middle; dominant-baseline: middle; font-size: 12px;" y="245.57701110839844" x="485.4679870605469" id="rel13" class="er relationshipLabel">user</text><rect height="14" width="69.478515625" y="225.51991271972656" x="1069.73583984375" class="er relationshipLabelBox"/><text style="text-anchor: middle; dominant-baseline: middle; font-size: 12px;" y="232.51991271972656" x="1104.47509765625" id="rel14" class="er relationshipLabel">favouritedBy</text><rect height="14" width="87.609375" y="708.6097412109375" x="610.2259521484375" class="er relationshipLabelBox"/><text style="text-anchor: middle; dominant-baseline: middle; font-size: 12px;" y="715.6097412109375" x="654.0306396484375" id="rel15" class="er relationshipLabel">userGameRating</text><rect height="14" width="55.162109375" y="454.0834045410156" x="1132.4700927734375" class="er relationshipLabelBox"/><text style="text-anchor: middle; dominant-baseline: middle; font-size: 12px;" y="461.0834045410156" x="1160.0511474609375" id="rel16" class="er relationshipLabel">comments</text><rect height="14" width="51.259765625" y="708.4073486328125" x="1223.76513671875" class="er relationshipLabelBox"/><text style="text-anchor: middle; dominant-baseline: middle; font-size: 12px;" y="715.4073486328125" x="1249.39501953125" id="rel17" class="er relationshipLabel">gamePost</text><rect height="14" width="23.958984375" y="272.71209716796875" x="1377.4764404296875" class="er relationshipLabelBox"/><text style="text-anchor: middle; dominant-baseline: middle; font-size: 12px;" y="279.71209716796875" x="1389.4559326171875" id="rel18" class="er relationshipLabel">user</text></svg>